<svg width="197" height="150" viewBox="0 0 197 150" fill="none" xmlns="http://www.w3.org/2000/svg">
<rect x="0.200195" width="196.8" height="150" rx="12" fill="#F5F8FB"/>
<path d="M40.979 47.392H36.035V45.64H31.907V47.392H26.963V50.56H40.979V47.392ZM46.403 50.752V46H42.347V61.288H46.403V54.688H48.803V50.752H46.403ZM33.971 59.584C37.379 59.584 40.259 58.144 40.259 55.36C40.259 52.576 37.379 51.136 33.971 51.136C30.563 51.136 27.683 52.576 27.683 55.36C27.683 58.144 30.563 59.584 33.971 59.584ZM33.971 54.064C35.435 54.064 36.395 54.64 36.395 55.36C36.395 56.08 35.435 56.656 33.971 56.656C32.507 56.656 31.547 56.08 31.547 55.36C31.547 54.64 32.507 54.064 33.971 54.064ZM32.435 60.184H28.307V66.496H46.691V62.968H32.435V60.184ZM62.9849 52.72H66.1049V56.032H70.1609V46H66.1049V49.024H62.8649C61.9769 47.176 59.8169 46.024 56.7929 46.024C52.8089 46.024 50.2889 48.04 50.2889 50.992C50.2889 53.968 52.8089 55.96 56.7929 55.96C59.9369 55.96 62.1689 54.712 62.9849 52.72ZM54.2969 50.992C54.2969 49.912 55.2569 49.216 56.7929 49.216C58.3289 49.216 59.2889 49.912 59.2889 50.992C59.2889 52.072 58.3289 52.768 56.7929 52.768C55.2569 52.768 54.2969 52.072 54.2969 50.992ZM56.0969 63.688V62.872H70.1609V56.752H52.0409V59.56H66.1529V60.376H52.0889V66.496H70.3769V63.688H56.0969ZM95.7974 46V66.496H99.8534V46H95.7974ZM89.1254 52.504H84.9494V46.48H80.9654V65.536H93.1094V46.48H89.1254V52.504ZM84.9494 61.816V56.2H89.1254V61.816H84.9494ZM113.507 54.928L121.787 59.248L123.683 55.984L115.475 51.808C115.667 51.304 115.835 50.752 115.979 50.2H122.819V46.48H104.195V50.2H111.515C110.411 53.392 107.243 55.288 103.835 55.36V59.08C107.627 59.056 111.203 57.52 113.507 54.928ZM103.139 61.984V65.776H123.875V61.984H103.139ZM146.049 46H141.993V66.496H146.049V46ZM131.313 46.36H127.137V65.536H135.609C137.577 65.536 139.665 65.176 140.913 64.552V60.856C139.665 61.456 137.553 61.84 135.609 61.84H131.313V46.36ZM159.535 53.8L167.935 59.176L170.071 55.888L161.335 50.632C161.887 49.36 162.271 48.016 162.463 46.576L158.335 45.928C157.591 51.424 153.799 55.216 149.719 55.24V59.08C153.631 59.056 157.159 57.016 159.535 53.8ZM149.311 65.776H170.047V61.984H149.311V65.776ZM97.0902 82H93.2982V97.192H97.0902V82ZM82.1142 91.168L85.5222 94.6L88.0182 92.224V96.832H91.7622V82.096H88.0182V84.712H85.5222V88.408H88.0182V91.84L83.5782 87.568C83.9862 86.008 84.2262 84.232 84.2262 82.312L80.3862 82.168C80.3862 87.4 78.7062 90.712 76.6422 91V94.768C78.8502 94.72 80.7702 93.4 82.1142 91.168ZM82.3542 98.848V95.68H78.2262V102.496H97.3302V98.848H82.3542ZM115.64 82V89.584H112.712V93.376H115.64V102.496H119.696V82H115.64ZM104.648 97.816V93.784H111.416V90.088H104.648V86.2H112.376V82.48H100.592V101.536H108.536C110.504 101.536 112.592 101.176 113.84 100.552V96.832C112.592 97.432 110.48 97.816 108.536 97.816H104.648Z" fill="#34495D"/>
</svg>
