<svg width="198" height="150" viewBox="0 0 198 150" fill="none" xmlns="http://www.w3.org/2000/svg">
<rect x="0.600098" width="196.8" height="150" rx="12" fill="#F5F8FB"/>
<path d="M34.5869 45.928H30.5549V48.52H27.0749V52.144H38.0189V48.52H34.5869V45.928ZM44.2349 46V53.536H42.5789V46.096H38.9069V66.136H42.5789V57.376H44.2349V66.496H47.9549V46H44.2349ZM32.6429 52.96C29.7869 52.96 27.6509 55.072 27.6509 59.368C27.6509 63.664 29.7869 65.776 32.6429 65.776C35.4989 65.776 37.6829 63.664 37.6829 59.368C37.6829 55.072 35.4989 52.96 32.6429 52.96ZM32.6429 62.296C31.8509 62.296 31.2749 61.264 31.2749 59.368C31.2749 57.472 31.8509 56.44 32.6429 56.44C33.4349 56.44 34.0589 57.472 34.0589 59.368C34.0589 61.264 33.4349 62.296 32.6429 62.296ZM66.4568 46V66.496H70.5128V46H66.4568ZM59.7128 61.744V58.744C62.4488 58.024 64.2728 55.72 64.2728 52.576C64.2728 48.736 61.5368 46.144 57.7448 46.144C53.9288 46.144 51.1928 48.736 51.1928 52.576C51.1928 55.672 52.9688 57.976 55.6808 58.72V61.744H50.6408V65.536H59.9048C61.9448 65.536 64.0088 65.296 65.2808 64.72V60.928C64.0088 61.504 61.8728 61.744 59.9768 61.744H59.7128ZM57.7448 49.768C59.3528 49.768 60.3848 50.968 60.3848 52.576C60.3848 54.184 59.3528 55.384 57.7448 55.384C56.1128 55.384 55.1048 54.184 55.1048 52.576C55.1048 50.968 56.1128 49.768 57.7448 49.768ZM95.7893 55.936H99.9893V46.24H81.6053V50.008H95.7893V55.936ZM101.189 57.16H80.4533V60.928H88.5893V66.976H92.7893V60.928H101.189V57.16ZM120.147 46V53.536H118.443V46.096H114.699V66.136H118.443V57.376H120.147V66.496H123.939V46H120.147ZM103.899 65.536H113.211V46.48H103.899V65.536ZM107.667 50.152H109.467V61.864H107.667V50.152ZM143.233 46V53.536H141.529V46.096H137.785V66.136H141.529V57.376H143.233V66.496H147.025V46H143.233ZM130.897 61.984V50.032H135.937V46.48H126.985V65.536H131.689C133.417 65.536 135.601 65.296 136.825 64.792V61.288C135.577 61.744 133.657 61.984 132.049 61.984H130.897ZM160.223 47.224H156.839V45.688H152.807V47.224H149.231V50.176H160.223V47.224ZM164.735 53.776H166.391V58.648H170.111V46H166.391V50.176H164.735V46.096H161.063V57.928H164.735V53.776ZM159.935 54.496C159.935 52.12 157.703 50.656 154.871 50.656C152.039 50.656 149.807 52.12 149.807 54.496C149.807 56.872 152.039 58.336 154.871 58.336C157.703 58.336 159.935 56.872 159.935 54.496ZM153.335 54.496C153.335 53.824 154.031 53.44 154.871 53.44C155.711 53.44 156.407 53.824 156.407 54.496C156.407 55.144 155.711 55.552 154.871 55.552C154.031 55.552 153.335 55.144 153.335 54.496ZM160.559 58.672C155.111 58.672 150.887 59.704 150.887 62.704C150.887 65.704 155.111 66.736 160.559 66.736C166.007 66.736 170.231 65.704 170.231 62.704C170.231 59.704 166.007 58.672 160.559 58.672ZM160.559 63.712C157.607 63.712 155.159 63.4 155.159 62.704C155.159 62.008 157.607 61.696 160.559 61.696C163.511 61.696 165.959 62.008 165.959 62.704C165.959 63.4 163.511 63.712 160.559 63.712ZM75.6521 89.488H73.2521V82H69.1961V102.496H73.2521V93.424H75.6521V89.488ZM54.5801 86.128H62.3321V88.912V89.512H54.5801V93.184H61.6601C60.4841 96.28 57.9161 97.72 54.5801 97.744V101.536C61.4441 101.512 66.3641 96.832 66.3641 88.624V82.48H54.5801V86.128ZM96.6981 82.48H78.2181V95.152H96.9381V91.408H82.3701V86.248H96.6981V82.48ZM97.8261 97.984H77.0901V101.776H97.8261V97.984ZM120 82H115.944V97.168H120V82ZM107.592 90.232L112.8 94.096L115.176 91.216L109.272 87.04C109.8 85.576 110.088 83.968 110.088 82.336L106.008 82.096C105.936 86.608 103.68 90.232 100.44 90.616V94.384C103.344 94.24 105.864 92.608 107.592 90.232ZM105.792 98.848V95.32H101.664V102.496H120.288V98.848H105.792ZM130.318 90.856L135.79 93.88L137.614 90.904L132.094 87.928C132.238 87.568 132.334 87.184 132.43 86.8H136.438V89.488H139.126V94.168H143.182V82H139.126V85.888H137.014V83.536H132.502V81.64H128.374V83.536H123.862V86.8H128.278C127.702 88.72 126.07 90.424 123.622 90.616V94.024C126.406 93.952 128.734 92.656 130.318 90.856ZM134.014 94.432C128.782 94.432 124.654 95.44 124.654 98.584C124.654 101.728 128.782 102.736 134.014 102.736C139.246 102.736 143.374 101.728 143.374 98.584C143.374 95.44 139.246 94.432 134.014 94.432ZM134.014 99.64C131.23 99.64 128.998 99.424 128.998 98.584C128.998 97.768 131.23 97.528 134.014 97.528C136.798 97.528 139.03 97.768 139.03 98.584C139.03 99.424 136.798 99.64 134.014 99.64Z" fill="#34495D"/>
</svg>
