<svg width="252" height="180" viewBox="0 0 252 180" fill="none" xmlns="http://www.w3.org/2000/svg">
<rect width="252" height="180" rx="12" fill="#A5FAEB"/>
<path opacity="0.6" d="M87.4463 31.376H88.8323V22.5H87.4463V31.376ZM81.5803 29.57C83.9183 29.57 85.3603 28.1 85.3603 26.098C85.3603 24.096 83.9183 22.626 81.5803 22.626C79.2423 22.626 77.7863 24.096 77.7863 26.098C77.7863 28.1 79.2423 29.57 81.5803 29.57ZM81.5803 28.394C80.1523 28.394 79.1723 27.512 79.1723 26.098C79.1723 24.684 80.1523 23.788 81.5803 23.788C82.9943 23.788 83.9743 24.684 83.9743 26.098C83.9743 27.512 82.9943 28.394 81.5803 28.394ZM78.8363 34.302H89.1543V33.042H80.2503V30.396H78.8363V34.302ZM97.8891 26.644H101.011V31.39H102.397V22.5H101.011V25.356H98.3231C98.3791 25.048 98.4071 24.726 98.4071 24.39V22.794H91.5191V24.012H97.0071V24.572C97.0071 26.896 94.8651 28.24 91.5191 28.254V29.5C94.5711 29.5 96.8951 28.534 97.8891 26.644ZM93.6331 33.056V30.494H92.2191V34.302H102.649V33.056H93.6331ZM114.38 22.5V34.456H115.766V22.5H114.38ZM110.698 26.966H106.666V22.85H105.294V33.742H112.07V22.85H110.698V26.966ZM106.666 32.468V28.24H110.698V32.468H106.666ZM131.701 30.816H133.143V22.92H122.727V24.222H131.701V30.816ZM127.879 32.58V27.246H126.451V32.58H121.999V33.882H133.941V32.58H127.879ZM145.237 31.376H146.623V22.5H145.237V31.376ZM136.011 29.248H143.123V22.794H136.011V29.248ZM137.383 28.044V23.998H141.751V28.044H137.383ZM136.487 34.302H146.945V33.042H137.887V30.424H136.487V34.302ZM153.776 22.472H152.362V24.39H149.198V25.622H156.954V24.39H153.776V22.472ZM161.434 27.344H159.754V22.5H158.368V34.456H159.754V28.674H161.434V27.344ZM153.076 26.574C151.13 26.574 149.744 28.03 149.744 30.228C149.744 32.426 151.13 33.882 153.076 33.882C155.022 33.882 156.394 32.426 156.394 30.228C156.394 28.03 155.022 26.574 153.076 26.574ZM153.076 32.678C151.956 32.678 151.088 31.754 151.088 30.228C151.088 28.702 151.956 27.778 153.076 27.778C154.182 27.778 155.05 28.702 155.05 30.228C155.05 31.754 154.182 32.678 153.076 32.678ZM163.253 27.134H173.599V25.902H164.653V22.5H163.253V27.134ZM162.399 29.682H174.341V28.45H162.399V29.682ZM163.225 34.316H173.725V33.084H164.639V30.746H163.225V34.316ZM76.6933 52.162H78.1633V40.948H74.3693V42.236H76.6933V52.162ZM90.6113 49.376H91.9973V40.5H90.6113V49.376ZM84.7453 47.57C87.0833 47.57 88.5253 46.1 88.5253 44.098C88.5253 42.096 87.0833 40.626 84.7453 40.626C82.4073 40.626 80.9513 42.096 80.9513 44.098C80.9513 46.1 82.4073 47.57 84.7453 47.57ZM84.7453 46.394C83.3173 46.394 82.3373 45.512 82.3373 44.098C82.3373 42.684 83.3173 41.788 84.7453 41.788C86.1593 41.788 87.1393 42.684 87.1393 44.098C87.1393 45.512 86.1593 46.394 84.7453 46.394ZM82.0013 52.302H92.3193V51.042H83.4153V48.396H82.0013V52.302ZM106.808 45.344H105.128V40.5H103.742V52.456H105.128V46.674H106.808V45.344ZM99.4721 40.85L98.0581 40.794C98.0441 45.82 96.7981 49.964 94.4041 50.342V51.742C96.2661 51.602 97.7081 50.048 98.5621 47.444L101.642 51.714L102.762 50.916L98.9961 45.82C99.3041 44.378 99.4581 42.712 99.4721 40.85ZM117.643 40.5V42.894H115.179C114.843 41.536 113.513 40.64 111.581 40.64C109.313 40.64 107.885 41.858 107.885 43.594C107.885 45.33 109.313 46.548 111.581 46.548C113.569 46.548 114.913 45.596 115.207 44.182H117.643V46.632H119.029V40.5H117.643ZM111.581 45.4C110.209 45.4 109.271 44.714 109.271 43.594C109.271 42.474 110.209 41.788 111.581 41.788C112.953 41.788 113.877 42.474 113.877 43.594C113.877 44.714 112.953 45.4 111.581 45.4ZM117.657 48.55H110.349V47.29H108.991V52.302H119.029V47.29H117.657V48.55ZM110.349 51.168V49.656H117.657V51.168H110.349ZM133.742 45.344H132.062V40.5H130.676V52.456H132.062V46.674H133.742V45.344ZM121.674 42.208H126.77V43.846C126.77 47.85 124.922 50.384 121.674 50.398V51.714C125.734 51.714 128.184 48.578 128.184 43.818V40.934H121.674V42.208ZM135.575 45.134H145.963V44.154H136.919V43.356H145.795V40.64H135.575V41.62H144.451V42.432H135.575V45.134ZM134.707 47.01H146.649V46.002H134.707V47.01ZM135.533 52.316H146.033V51.336H136.877V50.552H145.823V47.878H135.505V48.858H144.479V49.628H135.533V52.316ZM161.911 40.5V52.456H163.297V40.5H161.911ZM156.199 46.842C158.271 46.842 159.741 45.582 159.741 43.776C159.741 41.97 158.271 40.71 156.199 40.71C154.113 40.71 152.657 41.97 152.657 43.776C152.657 45.582 154.113 46.842 156.199 46.842ZM156.199 41.858C157.529 41.858 158.397 42.684 158.397 43.776C158.397 44.868 157.529 45.694 156.199 45.694C154.855 45.694 153.987 44.868 153.987 43.776C153.987 42.684 154.855 41.858 156.199 41.858ZM152.097 47.962V49.222H155.499V52.456H156.885V49.222H156.997C158.635 49.222 160.049 49.082 160.903 48.76V47.5C160.049 47.836 158.593 47.962 156.983 47.962H152.097ZM173.642 41.634H170.282V40.29H168.882V41.634H165.522V42.768H173.642V41.634ZM176.386 43.776V40.5H175V49.46H176.386V45.106H178.066V43.776H176.386ZM169.582 48.34C171.57 48.34 173.11 47.458 173.11 45.89C173.11 44.322 171.57 43.44 169.582 43.44C167.594 43.44 166.04 44.322 166.04 45.89C166.04 47.458 167.594 48.34 169.582 48.34ZM169.582 44.504C170.926 44.504 171.78 45.092 171.78 45.89C171.78 46.702 170.926 47.276 169.582 47.276C168.238 47.276 167.384 46.702 167.384 45.89C167.384 45.092 168.238 44.504 169.582 44.504ZM167.79 49.026H166.39V52.302H176.708V51.07H167.79V49.026Z" fill="#020F32"/>
<path d="M73.2302 69.888H77.3582V63H59.1182V66.432H73.2302V69.888ZM78.6542 74.088V70.68H57.9182V74.088H66.2462V76.368H59.0222V79.752H73.3262V83.736H77.4542V76.368H70.3262V74.088H78.6542ZM102.652 70.488H100.252V63H96.1961V83.496H100.252V74.424H102.652V70.488ZM81.5801 67.176H89.0441V69.024C89.0441 75.024 86.5001 78.648 81.5801 78.696V82.536C88.6841 82.536 93.1721 77.352 93.1721 69.024V63.48H81.5801V67.176ZM119.858 63V83.496H123.914V63H119.858ZM113.738 67.2H118.13V63.48H105.026V67.2H109.658C109.514 73.776 107.45 78.12 104.45 78.456V82.536C107.57 82.512 110.186 80.472 111.842 76.824L115.97 82.44L119.186 80.04L113.234 72.312C113.522 70.752 113.69 69.048 113.738 67.2ZM134.472 71.136C138.168 71.136 140.76 69.744 140.76 66.96C140.76 64.176 138.168 62.784 134.472 62.784C130.776 62.784 128.184 64.176 128.184 66.96C128.184 69.744 130.776 71.136 134.472 71.136ZM137.808 75.528V78.336H143.088V78.912H147.144V63H143.088V75.528H137.808ZM134.472 65.76C135.912 65.76 136.848 66.144 136.848 66.96C136.848 67.776 135.912 68.16 134.472 68.16C133.032 68.16 132.096 67.776 132.096 66.96C132.096 66.144 133.032 65.76 134.472 65.76ZM132.864 80.112V78.048H136.104V74.952H136.536C138.576 74.952 140.64 74.76 141.912 74.208V71.088C140.64 71.64 138.504 71.832 136.608 71.832H127.176V74.952H132.072V76.992H128.808V83.496H147.432V80.112H132.864ZM171.91 70.488H169.51V63H165.454V83.496H169.51V74.424H171.91V70.488ZM159.886 63.552L155.758 63.408C155.734 71.976 153.55 77.976 150.262 78.36V82.536C153.382 82.512 155.95 80.376 157.63 76.536L161.71 82.512L165.022 80.184L159.094 71.832C159.598 69.432 159.886 66.648 159.886 63.552ZM189.212 63V66.36H186.044C185.204 64.296 182.924 63.024 179.852 63.024C175.916 63.024 173.276 65.112 173.276 68.304C173.276 71.52 175.916 73.584 179.852 73.584C182.972 73.584 185.276 72.288 186.092 70.152H189.212V73.608H193.268V63H189.212ZM179.852 70.32C178.292 70.32 177.308 69.528 177.308 68.304C177.308 67.08 178.292 66.288 179.852 66.288C181.412 66.288 182.396 67.08 182.396 68.304C182.396 69.528 181.412 70.32 179.852 70.32ZM189.284 75.672H179.156V74.328H175.172V83.496H193.268V74.328H189.284V75.672ZM179.156 80.28V78.816H189.284V80.28H179.156ZM81.6216 91.6H73.8216V95.392H77.2776V111.16H81.6216V91.6ZM88.0202 94.216C86.6282 94.216 85.6202 95.248 85.6202 96.616C85.6202 97.984 86.6282 99.016 88.0202 99.016C89.3882 99.016 90.3962 97.984 90.3962 96.616C90.3962 95.248 89.3882 94.216 88.0202 94.216ZM88.0202 103.744C86.6282 103.744 85.6202 104.776 85.6202 106.144C85.6202 107.512 86.6282 108.544 88.0202 108.544C89.3882 108.544 90.3962 107.512 90.3962 106.144C90.3962 104.776 89.3882 103.744 88.0202 103.744ZM100.043 91.6H92.2434V95.392H95.6994V111.16H100.043V91.6ZM122.721 99.136H126.681V106.168H130.737V91H126.681V95.416H123.705V95.032V91.24H111.297V94.408H119.817V95.752H111.297V98.848H118.641C117.225 100.168 114.609 100.48 111.297 100.48V103.672C116.481 103.672 120.849 102.472 122.721 99.136ZM116.529 107.848V104.416H112.401V111.496H131.025V107.848H116.529ZM149.767 101.176H153.823V91H149.767V92.68H146.071V96.232H149.767V101.176ZM140.959 97.84L146.023 101.056L148.087 98.296L142.687 94.96C143.119 93.832 143.359 92.608 143.359 91.336L139.279 91.096C139.207 94.648 137.047 97.384 133.855 97.768V101.32C136.807 101.152 139.279 99.832 140.959 97.84ZM139.519 108.712V107.92H153.823V101.896H135.463V104.68H149.815V105.472H135.511V111.496H154.039V108.712H139.519ZM176.813 91H172.757V103.168H176.813V91ZM171.677 101.872V98.848C170.597 99.256 168.797 99.52 166.949 99.52H161.669V98.344H170.069V95.488H161.669V94.312H170.477V91.24H157.661V102.592H166.685C168.605 102.592 170.597 102.328 171.677 101.872ZM167.645 103.432C162.413 103.432 158.285 104.44 158.285 107.584C158.285 110.728 162.413 111.736 167.645 111.736C172.877 111.736 177.005 110.728 177.005 107.584C177.005 104.44 172.877 103.432 167.645 103.432ZM167.645 108.64C164.861 108.64 162.629 108.424 162.629 107.584C162.629 106.768 164.861 106.528 167.645 106.528C170.429 106.528 172.661 106.768 172.661 107.584C172.661 108.424 170.429 108.64 167.645 108.64Z" fill="#020F32"/>
<rect x="20" y="132" width="212" height="32" rx="4" fill="white"/>
<path opacity="0.6" d="M93.3638 145.207V144.441H95.8657V143.02H88.9751V144.441H91.6138V145.207C91.6001 147.265 90.5542 149.575 88.4829 150.539L89.4946 151.92C90.9302 151.243 91.9556 149.849 92.5093 148.208C93.0698 149.698 94.0542 150.97 95.4419 151.605L96.4126 150.238C94.3687 149.288 93.3569 147.101 93.3638 145.207ZM96.8364 154.258H98.5864V148.023H100.418V146.561H98.5864V141.816H96.8364V154.258ZM104.862 144.947V142.883H103.167V145.029C103.167 147.135 102.483 149.329 100.637 150.471L101.704 151.756C102.832 151.072 103.577 149.89 104.021 148.481C104.417 149.753 105.094 150.833 106.174 151.482L107.118 150.129C105.416 149.042 104.855 146.964 104.862 144.947ZM105.805 147.436H107.418V153.684H109.045V141.994H107.418V146.014H105.805V147.436ZM109.989 154.258H111.657V141.816H109.989V154.258ZM123.387 141.816H121.624V154.258H123.387V141.816ZM113.229 145.084H120.667V143.689H117.836V141.98H116.059V143.689H113.229V145.084ZM113.762 148.734C113.762 150.471 115.129 151.694 116.975 151.701C118.814 151.694 120.174 150.471 120.174 148.734C120.174 146.998 118.814 145.761 116.975 145.768C115.129 145.761 113.762 146.998 113.762 148.734ZM115.43 148.734C115.423 147.777 116.066 147.189 116.975 147.176C117.871 147.189 118.506 147.777 118.506 148.734C118.506 149.698 117.871 150.272 116.975 150.266C116.066 150.272 115.423 149.698 115.43 148.734ZM136.458 151.387H131.604V149.09H135.186V142.609H133.45V144.537H128.022V142.609H126.272V149.09H129.868V151.387H125.069V152.809H136.458V151.387ZM128.022 147.695V145.932H133.45V147.695H128.022ZM147.627 141.816H145.864V154.258H147.627V141.816ZM137.209 150.73L138.125 152.125C142.569 150.026 143.888 146.889 143.895 143.115H137.879V144.482H142.118C141.837 147.244 140.422 149.213 137.209 150.73Z" fill="#020F32"/>
<path d="M158.2 153.65L157.15 152.6L161.75 148L157.15 143.4L158.2 142.35L163.85 148L158.2 153.65Z" fill="#BFC6CC"/>
</svg>
