<svg width="448" height="150" viewBox="0 0 448 150" fill="none" xmlns="http://www.w3.org/2000/svg">
<rect width="448" height="150" rx="12" fill="#F5F8FB"/>
<g clip-path="url(#clip0_33_411)">
<path d="M285.328 40.2147C288.542 42.1432 290.6 45.3575 290.6 49.0861C290.6 51.529 289.7 53.9718 288.028 55.7718C286.1 57.829 283.271 58.4718 280.7 59.1147C278.9 59.5004 276.714 59.7575 274.914 60.529C272.985 61.3004 271.057 62.4575 271.057 64.9004H291.114V71.4575H263.6V65.8004C263.6 62.329 265.142 59.1147 268.742 56.6718C271.314 54.8718 274.271 53.9718 277.357 53.4575C280.057 52.9432 283.657 52.6861 283.657 49.0861C283.657 45.6147 279.285 44.4575 276.328 44.5861C272.857 44.8432 270.414 46.129 268.614 48.0575L263.728 43.5575C266.3 40.4718 271.185 38.029 276.328 37.9004C279.542 38.029 282.757 38.6718 285.328 40.2147Z" fill="#0068B6"/>
<path d="M293.043 57.0567C292.014 58.3424 291.114 60.1424 291.886 62.7138C292.528 64.1281 293.686 65.671 296.9 65.671H310.657V71.4567H317.728V65.671H323.514V59.7567H317.728V42.9138C317.728 40.3424 315.8 38.5424 313.1 38.2853C310.914 38.0281 308.471 38.7996 307.057 40.7281L293.043 57.0567ZM310.657 45.4853V59.7567H298.571L310.657 45.4853Z" fill="#0068B6"/>
<path d="M222.071 58.729H203.814V71.5862H196.743V47.8004C196.743 42.2719 200.086 38.6719 206.257 38.6719H223.357V45.229H207.414C204.714 45.229 203.814 46.5147 203.814 49.0862C203.814 49.6004 203.814 52.9433 203.814 52.9433H222.071V58.729Z" fill="#020F32"/>
<path d="M260 52.814C259.614 49.214 257.686 45.4855 255.243 43.0426C252.157 39.9569 247.914 38.0283 243.157 38.0283C233.771 38.0283 226.186 45.614 226.186 54.9997C226.186 61.0426 229.4 66.4426 234.286 69.3997C236.986 71.0712 240.071 71.8426 243.157 71.8426C247.786 71.8426 252.157 69.914 255.243 66.6998L250.357 62.3283C248.557 63.9998 245.986 65.1569 243.286 65.1569C240.586 65.1569 237.886 63.9998 235.957 62.0712C234.928 61.0426 234.157 59.7569 233.643 58.5997H259.743C259.743 58.7283 260.386 56.2855 260 52.814ZM233.128 52.814C233.514 51.014 234.414 49.214 235.828 47.7997C239.171 44.4569 244.314 43.814 248.171 45.9997C251 47.5426 252.671 50.114 253.186 52.814H233.128Z" fill="#020F32"/>
<path d="M149.942 62.5854L154.7 67.5997C151.485 70.814 147.114 72.7425 142.1 72.7425C132.328 72.7425 124.485 64.7711 124.485 54.9997C124.485 45.2283 132.457 37.2568 142.228 37.2568C147.114 37.2568 151.614 39.314 154.828 42.5283L149.557 47.1568C147.628 45.3568 145.057 44.1997 142.228 44.1997C136.314 44.1997 131.428 49.0854 131.428 54.9997C131.428 60.914 136.314 65.7997 142.228 65.7997C145.314 65.7997 148.014 64.514 149.942 62.5854Z" fill="#020F32"/>
<path d="M182.6 38.5426V42.014C180.543 39.4426 176.428 38.0283 172.828 38.0283C163.443 38.0283 155.857 45.614 155.857 54.9997C155.857 64.2569 163.443 71.8426 172.571 71.8426C176.171 71.8426 180.157 70.814 182.6 67.8569V71.4569H189.8V38.5426H182.6ZM172.7 65.2855C167.043 65.2855 162.414 60.6569 162.414 54.9997C162.414 49.3426 167.043 44.714 172.7 44.714C178.357 44.714 182.986 49.3426 182.986 54.9997C182.986 60.6569 178.486 65.2855 172.7 65.2855Z" fill="#020F32"/>
</g>
<path d="M43.4062 102.359H30.5938V103.562H36.2344V108.312H37.6875V103.562H43.4062V102.359ZM32.2031 100.578H41.7969V95.0781H32.2031V100.578ZM33.6562 99.4219V96.2656H40.3125V99.4219H33.6562ZM57.25 105.406H53.8906V102.938H56.0156V101.719H47.4688V99.6875H55.6875V95.3125H45.9688V96.5312H54.2188V98.4844H46V102.938H47.9375V105.406H44.4375V106.656H57.25V105.406ZM49.375 105.406V102.938H52.4375V105.406H49.375ZM63.125 102.297H61.6719V105.375H58.2656V106.578H71.0781V105.375H67.6562V102.297H66.1875V105.375H63.125V102.297ZM58.6875 100.828L59.2969 102.062C61.5703 101.641 63.6641 100.273 64.6016 98.4062C65.5234 100.273 67.6172 101.625 69.9219 102.062L70.5156 100.828C67.8203 100.406 65.375 98.4219 65.375 96.2656V95.2031H63.8125V96.2656C63.8047 98.4141 61.3672 100.391 58.6875 100.828ZM80.3125 95.4844H72.7031V96.7031H74.0312V100.758C73.4297 100.766 72.8516 100.766 72.3281 100.766L72.5 101.984C74.8594 101.984 78.1875 101.938 81.0469 101.469L80.9531 100.359C80.3125 100.438 79.6484 100.508 78.9688 100.555V96.7031H80.3125V95.4844ZM74.2656 105.719C74.2656 107.367 76.0625 108.305 79.0312 108.297C81.9922 108.305 83.7969 107.367 83.7969 105.719C83.7969 104.086 81.9922 103.164 79.0312 103.172C76.0625 103.164 74.2656 104.086 74.2656 105.719ZM75.4531 100.727V96.7031H77.5469V100.648C76.8438 100.688 76.1328 100.711 75.4531 100.727ZM75.7344 105.719C75.7422 104.828 76.9531 104.32 79.0312 104.312C81.1016 104.32 82.3125 104.828 82.3125 105.719C82.3125 106.633 81.1016 107.148 79.0312 107.156C76.9531 107.148 75.7422 106.633 75.7344 105.719ZM82.2188 102.875H83.7031V94.3438H82.2188V102.875ZM98.6875 100.312H93V99.0938H97.0469V94.7812H87.5625V99.0938H91.5469V100.312H85.9219V101.516H98.6875V100.312ZM87.4531 103.672H95.6094V104.734H87.4688V108.188H97.4688V107.047H88.9219V105.812H97.0781V102.531H87.4531V103.672ZM89.0156 97.9219V95.9531H95.5625V97.9219H89.0156ZM105.25 103.156C105.852 103.148 106.352 102.656 106.359 102.047C106.352 101.438 105.852 100.938 105.25 100.938C104.641 100.938 104.133 101.438 104.141 102.047C104.133 102.656 104.641 103.148 105.25 103.156ZM118.859 95.7188H112.312V104.812H118.859V95.7188ZM113.766 103.609V96.8906H117.391V103.609H113.766ZM121.203 108.328H122.688V101.062H124.938V99.8125H122.688V94.3281H121.203V108.328ZM137.594 94.3438H136.188V103.797H137.594V94.3438ZM125.672 102.344L126.391 103.422C128.641 102.453 130.086 101.148 130.922 99.5625H133.375V102.547H134.781V94.5781H133.375V98.3594H131.422C131.703 97.4688 131.828 96.5 131.828 95.4688H126.344V96.6719H130.383C130.336 97.1875 130.242 97.6719 130.086 98.1406L125.703 98.3906L125.922 99.6094L129.602 99.2188C128.875 100.477 127.617 101.531 125.672 102.344ZM127.344 107.109L127.938 108.266C130.102 107.906 131.953 106.836 132.836 105.344C133.711 106.836 135.562 107.906 137.734 108.266L138.312 107.109C135.672 106.719 133.562 105.156 133.562 103.391V102.984H132.094V103.391C132.102 105.156 129.992 106.719 127.344 107.109ZM151.297 95.5938H143.734V96.7969H145.062V101.391C144.461 101.398 143.883 101.406 143.344 101.406L143.516 102.625C145.914 102.617 149.18 102.555 152 102.109L151.906 101C151.281 101.078 150.633 101.141 149.969 101.188V96.7969H151.297V95.5938ZM145.469 108.031H154.938V106.828H146.953V103.656H145.469V108.031ZM146.5 101.359V96.7969H148.516V101.281C147.836 101.312 147.164 101.336 146.5 101.359ZM152.859 104.641H154.344V99.7344H156.375V98.4844H154.344V94.3438H152.859V104.641ZM169.219 94.3281H167.797V99.8125H166.062V94.5938H164.656V107.641H166.062V101.031H167.797V108.328H169.219V94.3281ZM157.641 104.641H163.078V95.9062H157.641V104.641ZM159.047 103.453V97.0781H161.688V103.453H159.047ZM176.5 103.156C177.102 103.148 177.602 102.656 177.609 102.047C177.602 101.438 177.102 100.938 176.5 100.938C175.891 100.938 175.383 101.438 175.391 102.047C175.383 102.656 175.891 103.148 176.5 103.156ZM194.219 94.9219H184.641V96.1094H192.75C192.75 96.9844 192.719 98.0547 192.43 99.4688H183.031V100.656H195.844V99.4688H193.922C194.227 97.9453 194.227 96.7656 194.219 95.8438V94.9219ZM184.531 103.094H192.766V104.438H184.547V108.188H194.594V107H186.031V105.578H194.234V101.906H184.531V103.094ZM209.672 105.406H203.969V102.953H208.438V101.734H199.891V99.6875H208.109V95.3125H198.391V96.5312H206.641V98.5H198.422V102.953H202.5V105.406H196.859V106.656H209.672V105.406ZM222.344 94.3281H220.875V97.3438H217.812V94.9688H216.344V96.8281H212.844V94.9688H211.359V101.062H217.812V98.5625H220.875V101.578H222.344V94.3281ZM212.844 99.8906V98H216.344V99.8906H212.844ZM213.188 103.391H220.875V104.562H213.219V108.156H222.844V106.969H214.703V105.656H222.344V102.203H213.188V103.391ZM233.281 102.297H231.828V105.375H228.422V106.578H241.234V105.375H237.812V102.297H236.344V105.375H233.281V102.297ZM228.844 100.828L229.453 102.062C231.727 101.641 233.82 100.273 234.758 98.4062C235.68 100.273 237.773 101.625 240.078 102.062L240.672 100.828C237.977 100.406 235.531 98.4219 235.531 96.2656V95.2031H233.969V96.2656C233.961 98.4141 231.523 100.391 228.844 100.828ZM250.469 95.4844H242.859V96.7031H244.188V100.758C243.586 100.766 243.008 100.766 242.484 100.766L242.656 101.984C245.016 101.984 248.344 101.938 251.203 101.469L251.109 100.359C250.469 100.438 249.805 100.508 249.125 100.555V96.7031H250.469V95.4844ZM244.422 105.719C244.422 107.367 246.219 108.305 249.188 108.297C252.148 108.305 253.953 107.367 253.953 105.719C253.953 104.086 252.148 103.164 249.188 103.172C246.219 103.164 244.422 104.086 244.422 105.719ZM245.609 100.727V96.7031H247.703V100.648C247 100.688 246.289 100.711 245.609 100.727ZM245.891 105.719C245.898 104.828 247.109 104.32 249.188 104.312C251.258 104.32 252.469 104.828 252.469 105.719C252.469 106.633 251.258 107.148 249.188 107.156C247.109 107.148 245.898 106.633 245.891 105.719ZM252.375 102.875H253.859V94.3438H252.375V102.875ZM268.844 100.312H263.156V99.0938H267.203V94.7812H257.719V99.0938H261.703V100.312H256.078V101.516H268.844V100.312ZM257.609 103.672H265.766V104.734H257.625V108.188H267.625V107.047H259.078V105.812H267.234V102.531H257.609V103.672ZM259.172 97.9219V95.9531H265.719V97.9219H259.172ZM275.406 103.156C276.008 103.148 276.508 102.656 276.516 102.047C276.508 101.438 276.008 100.938 275.406 100.938C274.797 100.938 274.289 101.438 274.297 102.047C274.289 102.656 274.797 103.148 275.406 103.156ZM289.016 95.7188H282.469V104.812H289.016V95.7188ZM283.922 103.609V96.8906H287.547V103.609H283.922ZM291.359 108.328H292.844V101.062H295.094V99.8125H292.844V94.3281H291.359V108.328ZM301.953 95.9531H296.5V97.1719H300.508C300.461 97.875 300.352 98.5547 300.18 99.2031L295.812 99.4688L296.016 100.75L299.766 100.367C299.07 101.922 297.844 103.289 295.812 104.422L296.656 105.453C298.875 104.219 300.219 102.695 301 100.984H303.438V107.641H304.844V94.6875H303.438V99.7812H301.453C301.812 98.5703 301.953 97.2812 301.953 95.9531ZM306.391 108.328H307.797V94.3281H306.391V108.328ZM317.125 95.3438H310.391V102.062H311.547C314.609 102.07 316.352 102.016 318.375 101.688L318.219 100.484C316.32 100.812 314.688 100.859 311.891 100.844V99.25H316.734V98.0781H311.891V96.5312H317.125V95.3438ZM311.75 105.719C311.75 107.367 313.539 108.305 316.516 108.297C319.445 108.305 321.273 107.367 321.281 105.719C321.273 104.086 319.445 103.141 316.516 103.141C313.539 103.141 311.75 104.086 311.75 105.719ZM313.234 105.719C313.227 104.828 314.43 104.305 316.516 104.312C318.562 104.305 319.805 104.828 319.797 105.719C319.805 106.633 318.562 107.148 316.516 107.156C314.43 107.148 313.227 106.633 313.234 105.719ZM319.719 102.953H321.203V94.3438H319.719V102.953ZM328.922 103.156C329.523 103.148 330.023 102.656 330.031 102.047C330.023 101.438 329.523 100.938 328.922 100.938C328.312 100.938 327.805 101.438 327.812 102.047C327.805 102.656 328.312 103.148 328.922 103.156ZM338.781 95.4062C336.914 95.4062 335.57 96.7969 335.578 98.8438C335.57 100.859 336.914 102.281 338.781 102.266C340.422 102.281 341.688 101.164 341.953 99.5H343.266V104.375H344.656V94.5781H343.266V98.2656H341.961C341.727 96.5391 340.453 95.4062 338.781 95.4062ZM336.906 98.8438C336.898 97.5547 337.695 96.6641 338.781 96.6719C339.859 96.6641 340.656 97.5547 340.672 98.8438C340.656 100.141 339.859 101 338.781 101C337.695 101 336.898 100.141 336.906 98.8438ZM338.109 108.031H347.797V106.828H339.578V103.438H338.109V108.031ZM345.984 104.797H347.391V94.3281H345.984V104.797ZM360.953 94.3281H359.484V99.5H356.703V100.719H359.484V108.359H360.953V94.3281ZM349.922 105.047H351.016C353.609 105.039 355.367 104.953 357.406 104.625L357.25 103.422C355.391 103.742 353.766 103.812 351.422 103.812V100.688H355.875V99.5H351.422V96.7812H356.469V95.5781H349.922V105.047ZM375.922 105.328H363.109V106.578H375.922V105.328ZM364.203 96.8906H366.328V101.562H364.234V102.75H374.703V101.562H372.609V96.8906H374.75V95.6719H364.203V96.8906ZM367.797 101.562V96.8906H371.156V101.562H367.797ZM387.844 94.3281H386.375V108.359H387.844V101.047H390.094V99.7969H387.844V94.3281ZM377.484 96.7969H382.422V99.5312H377.516V105.016H378.656C381.281 105 383.172 104.906 385.359 104.5L385.219 103.297C383.172 103.672 381.383 103.758 378.984 103.766V100.734H383.891V95.5938H377.484V96.7969ZM402.359 94.3281H400.875V108.359H402.359V94.3281ZM391.25 100.281C391.25 103.305 392.758 105.211 394.875 105.203C396.953 105.211 398.484 103.305 398.484 100.281C398.484 97.2891 396.953 95.3828 394.875 95.375C392.758 95.3828 391.25 97.2891 391.25 100.281ZM392.688 100.281C392.68 98.0859 393.57 96.7109 394.875 96.7031C396.156 96.7109 397.047 98.0859 397.047 100.281C397.047 102.508 396.156 103.875 394.875 103.875C393.57 103.875 392.68 102.508 392.688 100.281ZM417.406 105.297H404.594V106.516H417.406V105.297ZM405.188 101.797L405.797 102.984C408.016 102.555 410.086 101.203 410.984 99.3438C411.898 101.188 413.984 102.5 416.25 102.922L416.844 101.75C414.18 101.328 411.75 99.4375 411.75 97.2969V96.8594H416.297V95.6562H405.656V96.8594H410.203V97.2969C410.203 99.4375 407.789 101.375 405.188 101.797Z" fill="#34495D"/>
<defs>
<clipPath id="clip0_33_411">
<rect width="199.286" height="36" fill="white" transform="translate(124.357 37)"/>
</clipPath>
</defs>
</svg>
