<svg width="448" height="150" viewBox="0 0 448 150" fill="none" xmlns="http://www.w3.org/2000/svg">
<rect width="448" height="150" rx="12" fill="#F5F8FB"/>
<g clip-path="url(#clip0_33_408)">
<path d="M181.026 66.2287C181.026 66.8903 181.026 67.2211 180.821 67.4266C180.615 67.6322 180.284 67.6322 179.623 67.6322H177.411C176.749 67.6322 176.418 67.6322 176.213 67.4266C176.007 67.2211 176.007 66.8903 176.007 66.2287V51.3178C176.007 50.6562 176.007 50.3254 176.213 50.1198C176.418 49.9143 176.749 49.9143 177.411 49.9143H179.623C180.284 49.9143 180.615 49.9143 180.821 50.1198C181.026 50.3254 181.026 50.6562 181.026 51.3178V66.2287ZM181.498 44.7943C181.498 45.715 181.195 46.4448 180.588 46.9838C180.004 47.5002 179.308 47.7585 178.5 47.7585C177.691 47.7585 176.984 47.5002 176.378 46.9838C175.794 46.4448 175.502 45.715 175.502 44.7943C175.502 43.8736 175.794 43.155 176.378 42.6385C176.984 42.0996 177.691 41.8301 178.5 41.8301C179.308 41.8301 180.004 42.0996 180.588 42.6385C181.195 43.155 181.498 43.8736 181.498 44.7943Z" fill="#020F32"/>
<path d="M185.576 46.6966C185.576 46.1259 185.576 45.8405 185.743 45.6438C185.911 45.4471 186.193 45.4018 186.756 45.311L188.968 44.9547C189.723 44.833 190.101 44.7722 190.348 44.9823C190.595 45.1924 190.595 45.5751 190.595 46.3404V48.5102C190.595 49.1718 190.595 49.5027 190.8 49.7082C191.006 49.9137 191.337 49.9137 191.998 49.9137H195.221C195.882 49.9137 196.213 49.9137 196.419 50.1193C196.624 50.3248 196.624 50.6556 196.624 51.3172V52.6871C196.624 53.3487 196.624 53.6795 196.419 53.885C196.213 54.0906 195.882 54.0906 195.221 54.0906H191.998C191.337 54.0906 191.006 54.0906 190.8 54.2961C190.595 54.5017 190.595 54.8325 190.595 55.4941V60.3222C190.595 61.3776 190.774 62.2197 191.134 62.8485C191.515 63.4772 192.268 63.7916 193.39 63.7916C193.929 63.7916 194.48 63.7467 195.041 63.6569C195.828 63.5056 196.221 63.4299 196.455 63.5758C196.474 63.5876 196.487 63.5963 196.504 63.6097C196.725 63.775 196.789 64.1291 196.917 64.8373L197.129 66.0061C197.227 66.5511 197.277 66.8236 197.138 67.0512C197 67.2788 196.753 67.3548 196.259 67.5068C195.956 67.6 195.64 67.6865 195.31 67.7664C194.569 67.946 193.66 68.0358 192.582 68.0358C191.212 68.0358 190.078 67.8562 189.18 67.4969C188.282 67.1151 187.563 66.5987 187.024 65.9474C186.485 65.2737 186.103 64.4653 185.879 63.5222C185.677 62.579 185.576 61.5348 185.576 60.3895V46.6966Z" fill="#020F32"/>
<path d="M199.211 58.9076C199.211 57.3357 199.447 55.9659 199.918 54.7982C200.412 53.608 201.052 52.6199 201.838 51.834C202.624 51.048 203.523 50.4529 204.533 50.0487C205.566 49.6445 206.621 49.4424 207.699 49.4424C210.214 49.4424 212.202 50.2171 213.661 51.7666C215.121 53.2936 215.851 55.5505 215.851 58.5371C215.851 58.8291 215.84 59.1547 215.817 59.514C215.801 59.7566 215.793 59.8778 215.753 59.9799C215.676 60.1731 215.512 60.3265 215.314 60.39C215.21 60.4234 215.086 60.4234 214.838 60.4234H205.929C205.171 60.4234 204.792 60.4234 204.591 60.786C204.391 61.1486 204.547 61.3967 204.86 61.8931C205.097 62.2693 205.414 62.5992 205.813 62.8824C206.666 63.4887 207.812 63.7919 209.249 63.7919C210.17 63.7919 211.068 63.7133 211.944 63.5561C212.105 63.5239 212.26 63.4906 212.41 63.4563C213.287 63.2557 213.725 63.1554 213.977 63.3245C214.228 63.4935 214.295 63.8957 214.428 64.7001L214.638 65.9706C214.72 66.4666 214.761 66.7146 214.623 66.9382C214.485 67.1619 214.27 67.2286 213.841 67.3618C213.804 67.3732 213.767 67.3846 213.729 67.3961C213.28 67.5308 212.774 67.6431 212.213 67.7329C211.674 67.8452 211.09 67.935 210.461 68.0024C209.833 68.0698 209.204 68.1034 208.575 68.1034C206.981 68.1034 205.588 67.8677 204.398 67.3961C203.231 66.9245 202.254 66.2845 201.468 65.4761C200.704 64.6452 200.132 63.6684 199.75 62.5455C199.391 61.4227 199.211 60.2101 199.211 58.9076ZM209.728 56.9876C210.213 56.9876 210.455 56.9876 210.648 56.8309C210.731 56.7637 210.826 56.6328 210.863 56.5328C210.951 56.3 210.889 56.1138 210.765 55.7413C210.652 55.3371 210.461 54.9778 210.192 54.6634C209.945 54.3491 209.619 54.0908 209.215 53.8887C208.833 53.6866 208.351 53.5855 207.767 53.5855C207.205 53.5855 206.723 53.6866 206.318 53.8887C205.914 54.0683 205.577 54.3154 205.308 54.6298C205.038 54.9441 204.825 55.3147 204.668 55.7413C204.556 56.0777 204.5 56.2458 204.54 56.4333C204.577 56.6077 204.716 56.7994 204.869 56.8902C205.034 56.9876 205.239 56.9876 205.649 56.9876H209.728Z" fill="#020F32"/>
<path d="M229.459 58.234C229.459 56.6171 229.246 55.4719 228.819 54.7982C228.415 54.1245 227.707 53.7877 226.697 53.7877C226.382 53.7877 226.057 53.8101 225.72 53.855C225.396 53.8766 225.234 53.8874 225.091 53.9706C224.979 54.0361 224.874 54.1478 224.817 54.264C224.743 54.4117 224.743 54.5872 224.743 54.9384V66.2284C224.743 66.89 224.743 67.2208 224.538 67.4263C224.332 67.6319 224.001 67.6319 223.34 67.6319H221.128C220.466 67.6319 220.135 67.6319 219.93 67.4263C219.724 67.2208 219.724 66.89 219.724 66.2284V51.6023C219.724 51.0783 219.724 50.8163 219.88 50.6232C220.036 50.4302 220.283 50.3775 220.777 50.2721C220.915 50.2425 221.059 50.213 221.206 50.1834C221.79 50.0487 222.396 49.9364 223.025 49.8466C223.676 49.7343 224.339 49.6557 225.013 49.6108C225.686 49.5434 226.349 49.5098 227 49.5098C228.28 49.5098 229.313 49.6782 230.099 50.015C230.493 50.1685 230.853 50.338 231.178 50.5236C231.685 50.8128 231.938 50.9573 232.118 50.9603C232.298 50.9632 232.542 50.8344 233.03 50.5768C233.501 50.3285 234.005 50.1187 234.545 49.9477C235.488 49.6557 236.353 49.5098 237.139 49.5098C238.554 49.5098 239.71 49.7119 240.608 50.1161C241.529 50.4978 242.259 51.048 242.798 51.7666C243.337 52.4852 243.707 53.3385 243.909 54.3266C244.111 55.3147 244.213 56.415 244.213 57.6277V66.2284C244.213 66.89 244.213 67.2208 244.007 67.4263C243.801 67.6319 243.471 67.6319 242.809 67.6319H240.597C239.935 67.6319 239.605 67.6319 239.399 67.4263C239.194 67.2208 239.194 66.89 239.194 66.2284V58.234C239.194 56.6171 238.98 55.4719 238.554 54.7982C238.149 54.1245 237.442 53.7877 236.431 53.7877C236.162 53.7877 235.78 53.855 235.286 53.9898C235.212 54.0109 235.14 54.0329 235.07 54.0556C234.678 54.183 234.482 54.2467 234.347 54.466C234.212 54.6854 234.255 54.9667 234.34 55.5295C234.371 55.7305 234.394 55.9359 234.41 56.1456C234.455 56.707 234.478 57.3133 234.478 57.9645V66.2284C234.478 66.89 234.478 67.2208 234.272 67.4263C234.067 67.6319 233.736 67.6319 233.074 67.6319H230.862C230.201 67.6319 229.87 67.6319 229.664 67.4263C229.459 67.2208 229.459 66.89 229.459 66.2284V58.234Z" fill="#020F32"/>
<path d="M253.857 64.0276C254.778 64.0276 255.429 63.9378 255.811 63.7582C256.192 63.5785 256.383 63.2305 256.383 62.714C256.383 62.3098 256.136 61.9617 255.642 61.6698C255.148 61.3554 254.396 61.0073 253.385 60.6255C252.599 60.3336 251.881 60.0305 251.23 59.7161C250.601 59.4017 250.062 59.0312 249.613 58.6045C249.164 58.1554 248.816 57.6276 248.569 57.0213C248.321 56.415 248.198 55.6852 248.198 54.8319C248.198 53.1701 248.816 51.8564 250.051 50.8908C251.286 49.9252 252.981 49.4424 255.137 49.4424C256.215 49.4424 257.248 49.5434 258.236 49.7455C258.676 49.8255 259.076 49.91 259.435 49.9989C259.958 50.128 260.219 50.1925 260.369 50.4359C260.52 50.6793 260.456 50.9642 260.328 51.5339L260.061 52.7259C259.903 53.4298 259.825 53.7816 259.573 53.9369C259.323 54.0922 258.952 54.0007 258.21 53.8177C258.075 53.7843 257.938 53.7519 257.798 53.7203C257.124 53.5631 256.361 53.4845 255.507 53.4845C253.936 53.4845 253.15 53.9224 253.15 54.7982C253.15 55.0003 253.183 55.1799 253.251 55.3371C253.318 55.4943 253.453 55.6515 253.655 55.8087C253.857 55.9434 254.126 56.1006 254.463 56.2803C254.823 56.4375 255.272 56.6171 255.811 56.8192C256.911 57.2234 257.82 57.6276 258.539 58.0319C259.258 58.4136 259.819 58.8403 260.223 59.3119C260.65 59.761 260.942 60.2662 261.099 60.8276C261.279 61.3891 261.368 62.0403 261.368 62.7813C261.368 64.5329 260.706 65.8578 259.381 66.7561C258.079 67.6543 256.226 68.1034 253.823 68.1034C252.251 68.1034 250.938 67.9687 249.882 67.6992C249.469 67.5914 249.105 67.4908 248.793 67.3973C248.312 67.2535 248.071 67.1815 247.931 66.9471C247.791 66.7127 247.846 66.4479 247.955 65.9182L248.23 64.5839C248.384 63.8409 248.461 63.4695 248.724 63.311C248.987 63.1526 249.373 63.2646 250.147 63.4886C250.493 63.5889 250.842 63.6787 251.196 63.7582C252.094 63.9378 252.981 64.0276 253.857 64.0276Z" fill="#020F32"/>
<path d="M264.276 58.7729C264.276 57.4929 264.478 56.2915 264.883 55.1687C265.309 54.0234 265.916 53.0354 266.702 52.2045C267.488 51.3512 268.442 50.6775 269.565 50.1834C270.688 49.6894 271.968 49.4424 273.405 49.4424C274.348 49.4424 275.213 49.5322 275.998 49.7119C276.389 49.7898 276.773 49.8871 277.151 50.0037C277.672 50.164 277.932 50.2441 278.069 50.4902C278.207 50.7362 278.133 51.0214 277.984 51.5919L277.64 52.9125C277.46 53.6035 277.37 53.949 277.123 54.0964C276.876 54.2438 276.5 54.1522 275.749 53.969C275.731 53.9647 275.714 53.9603 275.695 53.9561C275.134 53.8213 274.505 53.754 273.809 53.754C272.327 53.754 271.215 54.2143 270.474 55.135C269.756 56.0557 269.396 57.2683 269.396 58.7729C269.396 60.3673 269.733 61.6024 270.407 62.4782C271.103 63.354 272.304 63.7919 274.011 63.7919C274.617 63.7919 275.269 63.7357 275.965 63.6234C276.041 63.6112 276.116 63.5981 276.191 63.5843C277.067 63.4215 277.505 63.3402 277.746 63.5079C277.987 63.6756 278.053 64.0599 278.185 64.8286L278.403 66.097C278.495 66.6315 278.542 66.8988 278.398 67.1263C278.256 67.3538 278.017 67.422 277.542 67.5582C277.194 67.6576 276.815 67.7495 276.403 67.834C275.527 68.0136 274.561 68.1034 273.506 68.1034C271.889 68.1034 270.497 67.8677 269.329 67.3961C268.161 66.902 267.196 66.2396 266.432 65.4087C265.691 64.5778 265.141 63.601 264.782 62.4782C264.445 61.3329 264.276 60.0978 264.276 58.7729Z" fill="#020F32"/>
<path d="M297.679 58.7392C297.679 60.1315 297.477 61.4115 297.073 62.5792C296.668 63.7245 296.085 64.7126 295.321 65.5434C294.558 66.3519 293.637 66.9806 292.559 67.4298C291.503 67.8789 290.313 68.1034 288.988 68.1034C287.686 68.1034 286.496 67.8789 285.418 67.4298C284.362 66.9806 283.453 66.3519 282.689 65.5434C281.926 64.7126 281.331 63.7245 280.904 62.5792C280.477 61.4115 280.264 60.1315 280.264 58.7392C280.264 57.3469 280.477 56.0782 280.904 54.9329C281.353 53.7876 281.96 52.8108 282.723 52.0024C283.509 51.194 284.43 50.5652 285.485 50.1161C286.563 49.6669 287.731 49.4424 288.988 49.4424C290.268 49.4424 291.436 49.6669 292.492 50.1161C293.569 50.5652 294.49 51.194 295.254 52.0024C296.017 52.8108 296.612 53.7876 297.039 54.9329C297.466 56.0782 297.679 57.3469 297.679 58.7392ZM292.559 58.7392C292.559 57.1898 292.245 55.9771 291.616 55.1013C291.009 54.2031 290.134 53.754 288.988 53.754C287.843 53.754 286.956 54.2031 286.327 55.1013C285.699 55.9771 285.384 57.1898 285.384 58.7392C285.384 60.2887 285.699 61.5238 286.327 62.4445C286.956 63.3427 287.843 63.7919 288.988 63.7919C290.134 63.7919 291.009 63.3427 291.616 62.4445C292.245 61.5238 292.559 60.2887 292.559 58.7392Z" fill="#020F32"/>
<path d="M316.691 65.9708C316.691 66.4838 316.691 66.7404 316.536 66.9327C316.383 67.125 316.145 67.1783 315.668 67.2847C315.009 67.4321 314.25 67.5703 313.39 67.6993C312.042 67.9239 310.627 68.0362 309.145 68.0362C307.641 68.0362 306.383 67.8341 305.373 67.4299C304.385 67.0256 303.599 66.4642 303.015 65.7456C302.431 65.0046 302.015 64.1288 301.768 63.1183C301.521 62.1077 301.398 60.9962 301.398 59.7835V51.3176C301.398 50.656 301.398 50.3252 301.604 50.1196C301.809 49.9141 302.14 49.9141 302.801 49.9141H305.013C305.675 49.9141 306.006 49.9141 306.211 50.1196C306.417 50.3252 306.417 50.656 306.417 51.3176V59.1772C306.417 60.7941 306.63 61.9618 307.057 62.6804C307.484 63.399 308.281 63.7583 309.448 63.7583C309.808 63.7583 310.19 63.747 310.594 63.7246C311.033 63.6757 311.253 63.6513 311.413 63.5207C311.469 63.4753 311.52 63.4177 311.559 63.3571C311.672 63.1835 311.672 62.9568 311.672 62.5035V51.3176C311.672 50.656 311.672 50.3252 311.877 50.1196C312.083 49.9141 312.413 49.9141 313.075 49.9141H315.287C315.949 49.9141 316.279 49.9141 316.485 50.1196C316.691 50.3252 316.691 50.656 316.691 51.3176V65.9708Z" fill="#020F32"/>
<path d="M321.234 46.6966C321.234 46.1259 321.234 45.8405 321.401 45.6438C321.569 45.4471 321.85 45.4018 322.414 45.311L324.625 44.9547C325.381 44.833 325.759 44.7722 326.006 44.9823C326.253 45.1924 326.253 45.5751 326.253 46.3404V48.5102C326.253 49.1718 326.253 49.5027 326.458 49.7082C326.663 49.9137 326.995 49.9137 327.656 49.9137H330.879C331.54 49.9137 331.871 49.9137 332.077 50.1193C332.282 50.3248 332.282 50.6556 332.282 51.3172V52.6871C332.282 53.3487 332.282 53.6795 332.077 53.885C331.871 54.0906 331.54 54.0906 330.879 54.0906H327.656C326.995 54.0906 326.663 54.0906 326.458 54.2961C326.253 54.5017 326.253 54.8325 326.253 55.4941V60.3222C326.253 61.3776 326.432 62.2197 326.792 62.8485C327.174 63.4772 327.926 63.7916 329.049 63.7916C329.588 63.7916 330.138 63.7467 330.699 63.6569C331.486 63.5056 331.879 63.4299 332.112 63.5758C332.131 63.5876 332.145 63.5963 332.162 63.6097C332.383 63.775 332.447 64.1291 332.575 64.8373L332.787 66.0061C332.885 66.5511 332.934 66.8236 332.796 67.0512C332.658 67.2788 332.411 67.3548 331.917 67.5068C331.614 67.6 331.298 67.6865 330.969 67.7664C330.228 67.946 329.318 68.0358 328.24 68.0358C326.87 68.0358 325.736 67.8562 324.838 67.4969C323.94 67.1151 323.221 66.5987 322.682 65.9474C322.143 65.2737 321.762 64.4653 321.537 63.5222C321.335 62.579 321.234 61.5348 321.234 60.3895V46.6966Z" fill="#020F32"/>
</g>
<g clip-path="url(#clip1_33_408)">
<mask id="mask0_33_408" style="mask-type:alpha" maskUnits="userSpaceOnUse" x="115" y="35" width="41" height="40">
<path d="M115.053 55C115.053 45.5719 115.053 40.8579 117.982 37.9289C120.911 35 125.625 35 135.053 35C144.481 35 149.195 35 152.124 37.9289C155.053 40.8579 155.053 45.5719 155.053 55C155.053 64.4281 155.053 69.1422 152.124 72.0709C149.195 75 144.481 75 135.053 75C125.625 75 120.911 75 117.982 72.0709C115.053 69.1422 115.053 64.4281 115.053 55Z" fill="#001C34"/>
</mask>
<g mask="url(#mask0_33_408)">
<path d="M151.303 35H118.803C116.732 35 115.053 36.6789 115.053 38.75V71.25C115.053 73.3211 116.732 75 118.803 75H151.303C153.374 75 155.053 73.3211 155.053 71.25V38.75C155.053 36.6789 153.374 35 151.303 35Z" fill="#020F32"/>
<path d="M127.672 48.5717L100.529 70.7146V95.7146H157.315V45.3574L140.886 61.786L127.672 48.5717Z" fill="#268DFF"/>
<path fill-rule="evenodd" clip-rule="evenodd" d="M159.44 43.5897C160.416 44.566 160.416 46.1489 159.44 47.1252L143.011 63.5537C142.035 64.5301 140.452 64.5301 139.476 63.5537L127.859 51.937L102.467 72.6518C101.397 73.5247 99.8219 73.3647 98.9491 72.295C98.0764 71.225 98.2361 69.6503 99.306 68.7775L126.449 46.6346C127.443 45.8235 128.89 45.8967 129.797 46.8039L141.243 58.2505L155.904 43.5897C156.881 42.6133 158.464 42.6133 159.44 43.5897Z" fill="white"/>
</g>
</g>
<path d="M62.2578 98.3125V97.25H60.6953V98.3125C60.6875 100.594 58.2734 102.734 55.6172 103.234L56.2734 104.469C58.5156 103.969 60.5703 102.508 61.4922 100.547C62.3984 102.516 64.4531 103.984 66.6953 104.469L67.3828 103.234C64.6875 102.75 62.2578 100.594 62.2578 98.3125ZM55.1484 108.484H67.9609V107.25H55.1484V108.484ZM76.0547 97.7188H69.5078V106.812H76.0547V97.7188ZM70.9609 105.609V98.8906H74.5859V105.609H70.9609ZM78.3984 110.328H79.8828V103.062H82.1328V101.812H79.8828V96.3281H78.3984V110.328ZM94.1641 103.781H85.9141V101.75H93.7266V100.578H85.9141V98.6875H94.0234V97.4844H84.4141V104.969H94.1641V103.781ZM82.8047 108.562H95.6172V107.344H82.8047V108.562ZM103.742 98.3125V97.25H102.18V98.3125C102.172 100.594 99.7578 102.734 97.1016 103.234L97.7578 104.469C100 103.969 102.055 102.508 102.977 100.547C103.883 102.516 105.938 103.984 108.18 104.469L108.867 103.234C106.172 102.75 103.742 100.594 103.742 98.3125ZM96.6328 108.484H109.445V107.25H96.6328V108.484ZM121.82 103.5H113.57V101.594H121.383V100.422H113.57V98.625H121.68V97.4062H112.07V104.688H116.102V107.422H110.461V108.641H123.273V107.422H117.586V104.688H121.82V103.5ZM128.086 97.375C126 97.3828 124.523 99.2891 124.539 102.281C124.523 105.305 126 107.211 128.086 107.203C130.039 107.211 131.453 105.516 131.617 102.781H134.492V110.359H135.961V96.3281H134.492V101.578H131.602C131.375 98.9922 129.992 97.3828 128.086 97.375ZM125.945 102.281C125.953 100.086 126.82 98.7109 128.086 98.7031C129.352 98.7109 130.219 100.086 130.227 102.281C130.219 104.508 129.352 105.875 128.086 105.875C126.82 105.875 125.953 104.508 125.945 102.281ZM149.414 97.2188H142.758V102.969H149.414V97.2188ZM143.68 109.141L144.195 110.281C146.398 110.016 148.234 109.094 149.094 107.844C149.938 109.078 151.75 110.016 153.945 110.281L154.445 109.141C151.898 108.859 149.953 107.578 149.852 106.359H153.945V105.234H149.82V103.922H148.352V105.234H144.242V106.359H148.32C148.219 107.617 146.227 108.891 143.68 109.141ZM144.211 101.812V98.4062H147.945V101.812H144.211ZM152.148 104.328H153.617V96.3281H152.148V104.328ZM171.352 96.3281H169.867V110.359H171.352V96.3281ZM160.242 102.281C160.242 105.305 161.75 107.211 163.867 107.203C165.945 107.211 167.477 105.305 167.477 102.281C167.477 99.2891 165.945 97.3828 163.867 97.375C161.75 97.3828 160.242 99.2891 160.242 102.281ZM161.68 102.281C161.672 100.086 162.562 98.7109 163.867 98.7031C165.148 98.7109 166.039 100.086 166.039 102.281C166.039 104.508 165.148 105.875 163.867 105.875C162.562 105.875 161.672 104.508 161.68 102.281ZM180.727 97.75H174.336V98.9531H179.25C179.195 99.75 179.062 100.516 178.844 101.234L173.617 101.562L173.852 102.844L178.391 102.414C177.539 104.195 176.023 105.703 173.57 106.953L174.398 108.078C179.375 105.547 180.719 101.875 180.727 97.75ZM180.695 103.094H183.773V110.328H185.242V96.3281H183.773V101.875H180.695V103.094ZM194.461 97.6719H187.961V106.828H194.461V102.562H197.617V110.359H199.086V96.3281H197.617V101.359H194.461V97.6719ZM189.43 105.641V98.8281H193.008V105.641H189.43ZM208.352 98.3125V97.25H206.789V98.3125C206.781 100.594 204.367 102.734 201.711 103.234L202.367 104.469C204.609 103.969 206.664 102.508 207.586 100.547C208.492 102.516 210.547 103.984 212.789 104.469L213.477 103.234C210.781 102.75 208.352 100.594 208.352 98.3125ZM201.242 108.484H214.055V107.25H201.242V108.484ZM223.211 98.25V96.8906H221.773V98.1875C221.781 99.8828 220.797 101.711 218.914 102.562L219.758 103.688C221.086 103.062 222.016 101.898 222.516 100.562C222.977 101.75 223.836 102.734 225.117 103.266L225.914 102.156C224.141 101.438 223.211 99.8438 223.211 98.25ZM221.523 105.5H229.461V106.625H221.555V110.188H231.445V109H223.023V107.75H230.914V104.328H221.523V105.5ZM224.711 100.031H226.711V103.656H228.133V96.5781H226.711V98.8281H224.711V100.031ZM229.508 103.75H230.914V96.3438H229.508V103.75ZM244.461 96.3281H242.992V101.594H240.43V102.828H242.992V110.359H244.461V96.3281ZM233.289 98.7969H238.164V101.391H233.32V107.031H234.43C236.898 107.016 238.742 106.93 240.836 106.562L240.711 105.344C238.758 105.695 237.039 105.766 234.805 105.781V102.594H239.602V97.5938H233.289V98.7969ZM262.57 96.3281H261.133V110.328H262.57V96.3281ZM251.039 107.031H251.961C254.148 107.031 255.531 106.961 257.133 106.641L257.008 105.391C255.555 105.703 254.32 105.781 252.492 105.797V99.2188H256.352V98H251.039V107.031ZM255.398 102.828H258.273V109.625H259.68V96.625H258.273V101.594H255.398V102.828ZM275.961 96.3281H274.477V110.359H275.961V96.3281ZM264.852 102.281C264.852 105.305 266.359 107.211 268.477 107.203C270.555 107.211 272.086 105.305 272.086 102.281C272.086 99.2891 270.555 97.3828 268.477 97.375C266.359 97.3828 264.852 99.2891 264.852 102.281ZM266.289 102.281C266.281 100.086 267.172 98.7109 268.477 98.7031C269.758 98.7109 270.648 100.086 270.648 102.281C270.648 104.508 269.758 105.875 268.477 105.875C267.172 105.875 266.281 104.508 266.289 102.281ZM289.867 96.3281H288.398V101.5H285.617V102.719H288.398V110.359H289.867V96.3281ZM278.836 107.047H279.93C282.523 107.039 284.281 106.953 286.32 106.625L286.164 105.422C284.305 105.742 282.68 105.812 280.336 105.812V102.688H284.789V101.5H280.336V98.7812H285.383V97.5781H278.836V107.047ZM308.727 103.656H295.914V104.844H301.695V107.422H303.164V104.844H308.727V103.656ZM297.508 110.031H307.305V108.828H298.977V106.203H297.508V110.031ZM297.602 102.422H307.039V96.7656H305.555V98.4688H299.07V96.7656H297.602V102.422ZM299.07 101.234V99.5781H305.555V101.234H299.07ZM314.695 98.5625V97.0469H313.211V98.4844C313.203 100.555 311.938 102.398 309.742 103.156L310.539 104.359C312.172 103.734 313.359 102.516 313.977 100.961C314.578 102.375 315.719 103.5 317.258 104.062L318.07 102.875C315.961 102.172 314.688 100.422 314.695 98.5625ZM311.945 106.531H319.945V110.328H321.43V105.359H311.945V106.531ZM316.992 100.375H319.945V104.625H321.43V96.3281H319.945V99.1562H316.992V100.375ZM332.273 97.6875H330.586L327.773 99.5312V101.172L330.477 99.4062H330.539V109H332.273V97.6875ZM347.445 102.906H334.664V104.125H347.445V102.906ZM336.18 107.766C336.18 109.391 338 110.305 341.039 110.297C344.055 110.305 345.859 109.391 345.867 107.766C345.859 106.141 344.055 105.219 341.039 105.219C338 105.219 336.18 106.141 336.18 107.766ZM336.258 101.688H345.961V100.484H337.727V98.0469H345.867V96.8281H336.258V101.688ZM337.68 107.766C337.672 106.875 338.898 106.375 341.039 106.359C343.148 106.375 344.383 106.875 344.383 107.766C344.383 108.664 343.148 109.148 341.039 109.156C338.898 109.148 337.672 108.664 337.68 107.766ZM357.445 99.8906V97.5H355.945V99.8906C355.938 102.484 354.492 105.18 352.32 106.219L353.258 107.422C354.875 106.586 356.094 104.883 356.711 102.867C357.328 104.781 358.531 106.359 360.117 107.156L361.023 105.969C358.883 105.008 357.445 102.453 357.445 99.8906ZM359.477 102.188H362.602V110.359H364.07V96.3281H362.602V100.984H359.477V102.188ZM377.82 96.3281H376.336V110.359H377.82V96.3281ZM367.008 107H373.727V97.5H372.258V101.094H368.492V97.5H367.008V107ZM368.492 105.781V102.266H372.258V105.781H368.492ZM387.164 98.3125V97.25H385.602V98.3125C385.594 100.594 383.18 102.734 380.523 103.234L381.18 104.469C383.422 103.969 385.477 102.508 386.398 100.547C387.305 102.516 389.359 103.984 391.602 104.469L392.289 103.234C389.594 102.75 387.164 100.594 387.164 98.3125ZM380.055 108.484H392.867V107.25H380.055V108.484Z" fill="#34495D"/>
<defs>
<clipPath id="clip0_33_408">
<rect width="157.895" height="26.6667" fill="white" transform="translate(175.053 41.667)"/>
</clipPath>
<clipPath id="clip1_33_408">
<rect width="40" height="40" fill="white" transform="translate(115.053 35)"/>
</clipPath>
</defs>
</svg>
