<svg width="197" height="150" viewBox="0 0 197 150" fill="none" xmlns="http://www.w3.org/2000/svg">
<rect width="196.8" height="150" rx="12" fill="#F5F8FB"/>
<path d="M46.7788 64H42.7228V84.496H46.7788V64ZM34.0108 64.24C30.1468 64.24 27.5548 67.264 27.5548 74.008C27.5548 80.752 30.1468 83.776 34.0108 83.776C37.8748 83.776 40.4428 80.752 40.4428 74.008C40.4428 67.264 37.8748 64.24 34.0108 64.24ZM34.0108 67.96C35.3548 67.96 36.4348 69.424 36.4348 74.008C36.4348 78.616 35.3548 80.056 34.0108 80.056C32.6428 80.056 31.5628 78.616 31.5628 74.008C31.5628 69.424 32.6428 67.96 34.0108 67.96ZM69.1927 71.92L70.5607 68.896L62.4967 65.992C62.8087 65.392 63.0247 64.768 63.1687 64.12L59.0647 63.424C58.4407 66.472 54.5527 68.44 50.6407 68.584V71.872C54.5047 71.8 58.0327 70.576 60.3847 68.584L69.1927 71.92ZM50.0407 72.784V75.904H70.7767V72.784H50.0407ZM60.4087 76.72C54.8887 76.72 51.0487 77.776 51.0487 80.728C51.0487 83.68 54.8887 84.736 60.4087 84.736C65.9287 84.736 69.7687 83.68 69.7687 80.728C69.7687 77.776 65.9287 76.72 60.4087 76.72ZM60.4087 81.712C57.4327 81.712 55.3687 81.472 55.3687 80.728C55.3687 80.008 57.4327 79.744 60.4087 79.744C63.3847 79.744 65.4487 80.008 65.4487 80.728C65.4487 81.472 63.3847 81.712 60.4087 81.712ZM89.7347 64V68.272H88.0307V64.096H84.2867V76.84H88.0307V71.968H89.7347V77.056H93.5267V64H89.7347ZM83.3267 75.832V72.688C82.2467 73.096 80.4467 73.36 78.5987 73.36H77.2547V71.872H82.3667V68.872H77.2547V67.432H82.6547V64.24H73.4867V76.552H78.3587C80.2787 76.552 82.2467 76.288 83.3267 75.832ZM74.5667 81.112H89.5187V84.736H93.5267V77.776H74.5667V81.112ZM119.523 64V84.496H123.339V64H119.523ZM114.171 70.288H111.915V74.128H114.171V80.824L109.923 72.688C110.235 70.336 110.403 67.624 110.403 64.552L106.563 64.408C106.563 73.36 105.219 79.048 102.939 79.408V83.536C105.507 83.416 107.427 81.592 108.675 78.16L111.219 83.344L114.171 81.904V84.136H117.939V64.096H114.171V70.288ZM145.561 64.24H127.225V74.92H145.561V64.24ZM141.553 71.224H131.233V67.96H141.553V71.224ZM146.761 76.624H126.025V80.368H134.305V84.976H138.481V80.368H146.761V76.624ZM170.759 71.488H168.359V64H164.303V84.496H168.359V75.424H170.759V71.488ZM158.735 64.552L154.607 64.408C154.583 72.976 152.399 78.976 149.111 79.36V83.536C152.231 83.512 154.799 81.376 156.479 77.536L160.559 83.512L163.871 81.184L157.943 72.832C158.447 70.432 158.735 67.648 158.735 64.552Z" fill="#34495D"/>
</svg>
