<svg width="252" height="180" viewBox="0 0 252 180" fill="none" xmlns="http://www.w3.org/2000/svg">
<rect width="252" height="180" rx="12" fill="#D9F6FF"/>
<path opacity="0.6" d="M70.4409 36.844H68.7609V32H67.3749V43.956H68.7609V38.174H70.4409V36.844ZM58.3729 33.708H63.4689V35.346C63.4689 39.35 61.6209 41.884 58.3729 41.898V43.214C62.4329 43.214 64.8829 40.078 64.8829 35.318V32.434H58.3729V33.708ZM81.1777 32V38.132H82.5637V32H81.1777ZM79.0637 35.094C79.0637 33.344 77.6077 32.126 75.3257 32.126C73.0297 32.126 71.5737 33.344 71.5737 35.094C71.5737 36.858 73.0297 38.062 75.3257 38.062C77.6077 38.062 79.0637 36.858 79.0637 35.094ZM72.9597 35.094C72.9597 33.946 73.9257 33.26 75.3257 33.26C76.7257 33.26 77.6777 33.946 77.6777 35.094C77.6777 36.242 76.7257 36.928 75.3257 36.928C73.9257 36.928 72.9597 36.242 72.9597 35.094ZM81.2057 40.05H73.9397V38.79H72.5677V43.802H82.5637V38.79H81.2057V40.05ZM73.9397 42.668V41.156H81.2057V42.668H73.9397ZM94.6445 32V43.956H96.0305V32H94.6445ZM90.2205 32.35L88.8065 32.294C88.7925 37.32 87.4765 41.464 85.0825 41.842V43.242C86.9725 43.102 88.4285 41.506 89.3105 38.874L92.4885 43.214L93.6085 42.416L89.7445 37.264C90.0525 35.836 90.2065 34.184 90.2205 32.35ZM103.383 43.662H104.937L109.641 33.428V32.448H101.955V33.736H107.947L103.383 43.662ZM120.648 37.852H122.034V32H120.648V37.852ZM114.81 37.698C117.022 37.698 118.506 36.536 118.506 34.912C118.506 33.288 117.022 32.126 114.81 32.126C112.598 32.126 111.1 33.288 111.1 34.912C111.1 36.536 112.598 37.698 114.81 37.698ZM114.81 36.578C113.438 36.578 112.472 35.92 112.472 34.912C112.472 33.904 113.438 33.246 114.81 33.246C116.182 33.246 117.134 33.904 117.134 34.912C117.134 35.92 116.182 36.578 114.81 36.578ZM112.052 43.802H122.328V42.71H113.424V41.674H122.034V38.51H112.024V39.602H120.662V40.638H112.052V43.802ZM135.165 34.842V32H133.779V40.876H135.165V36.172H136.845V34.842H135.165ZM131.539 33.918V32.294H124.651V33.512H130.139V34.086C130.139 36.466 127.997 37.74 124.651 37.754V39C128.753 39 131.539 37.32 131.539 33.918ZM126.569 40.036H125.169V43.802H135.487V42.542H126.569V40.036ZM152.836 32.35H142.56V38.146H152.836V32.35ZM151.45 36.872H143.946V33.638H151.45V36.872ZM153.676 39.588H141.734V40.904H146.984V44.236H148.412V40.904H153.676V39.588ZM164.161 42.122V39.798H166.541V38.566H157.385V36.704H166.359V32.434H155.999V33.666H164.987V35.514H155.999V39.798H158.183V42.122H155.201V43.382H167.143V42.122H164.161ZM159.569 39.798H162.775V42.122H159.569V39.798ZM178.439 43.956H179.839V32H178.439V43.956ZM172.797 43.396C174.911 43.396 176.409 41.632 176.409 37.838C176.409 34.044 174.911 32.28 172.797 32.28C170.669 32.28 169.171 34.044 169.171 37.838C169.171 41.632 170.669 43.396 172.797 43.396ZM172.797 42.122C171.523 42.122 170.557 40.876 170.557 37.838C170.557 34.814 171.523 33.554 172.797 33.554C174.043 33.554 175.023 34.814 175.023 37.838C175.023 40.876 174.043 42.122 172.797 42.122ZM191.444 37.6V36.102C192.62 35.752 193.376 35.136 193.376 34.212C193.376 32.588 190.996 31.93 188.098 31.93C185.2 31.93 182.82 32.588 182.82 34.212C182.82 35.136 183.576 35.752 184.752 36.102V37.6H182.134V38.72H194.076V37.6H191.444ZM184.29 34.212C184.29 33.386 186.012 33.022 188.098 33.022C190.184 33.022 191.906 33.386 191.906 34.212C191.906 35.052 190.184 35.416 188.098 35.416C186.012 35.416 184.29 35.052 184.29 34.212ZM186.124 36.396C186.74 36.466 187.398 36.508 188.098 36.508C188.798 36.508 189.456 36.466 190.072 36.396V37.6H186.124V36.396ZM188.098 39.644C185.242 39.644 182.848 40.162 182.848 41.8C182.848 43.438 185.242 43.984 188.098 43.984C190.954 43.984 193.348 43.438 193.348 41.8C193.348 40.162 190.954 39.644 188.098 39.644ZM188.098 42.892C186.166 42.892 184.318 42.626 184.318 41.8C184.318 40.988 186.166 40.736 188.098 40.736C190.03 40.736 191.892 40.988 191.892 41.8C191.892 42.626 190.03 42.892 188.098 42.892Z" fill="#020F32"/>
<path d="M112.371 52.5H108.315V72.996H112.371V52.5ZM105.603 52.98H93.4591V72.036H105.603V52.98ZM97.5151 68.244V56.772H101.547V68.244H97.5151ZM131.497 52.5V59.124H127.177V62.916H131.497V72.996H135.553V52.5H131.497ZM124.969 53.052L120.841 52.908C120.841 61.476 118.777 67.452 115.633 67.812V72.036C118.753 72.012 121.345 69.684 123.001 65.532L126.865 72.012L130.345 69.852L124.393 60.444C124.777 58.236 124.969 55.764 124.969 53.052ZM154.703 52.5V68.7L151.415 61.716C151.703 59.244 151.823 56.364 151.847 53.052L148.079 52.908C148.079 59.292 147.695 64.164 146.591 66.54L144.791 61.716C145.079 59.244 145.199 56.34 145.223 53.052L141.455 52.908C141.455 61.5 140.759 67.356 138.455 67.884V72.036C140.855 71.748 142.463 70.188 143.519 67.404L145.079 71.964V72.036H145.103C147.599 71.724 149.231 70.044 150.287 67.044L152.375 71.868L154.703 70.668V72.996H158.663V52.5H154.703ZM64.043 80.5H59.987V100.996H64.043V80.5ZM51.275 80.74C47.411 80.74 44.819 83.764 44.819 90.508C44.819 97.252 47.411 100.276 51.275 100.276C55.139 100.276 57.707 97.252 57.707 90.508C57.707 83.764 55.139 80.74 51.275 80.74ZM51.275 84.46C52.619 84.46 53.699 85.924 53.699 90.508C53.699 95.116 52.619 96.556 51.275 96.556C49.907 96.556 48.827 95.116 48.827 90.508C48.827 85.924 49.907 84.46 51.275 84.46ZM84.2249 89.452V87.556C85.9769 86.884 87.0329 85.828 87.0329 84.316C87.0329 81.364 83.0729 80.164 77.6729 80.164C72.2729 80.164 68.3129 81.364 68.3129 84.316C68.3129 85.828 69.3689 86.884 71.1209 87.556V89.452H67.3049V92.524H88.0409V89.452H84.2249ZM77.6729 83.188C80.7449 83.188 82.7129 83.548 82.7129 84.316C82.7129 85.108 80.7449 85.444 77.6729 85.444C74.6009 85.444 72.6329 85.108 72.6329 84.316C72.6329 83.548 74.6009 83.188 77.6729 83.188ZM75.1289 88.372C75.9209 88.444 76.7849 88.468 77.6729 88.468C78.5609 88.468 79.4249 88.444 80.2169 88.372V89.452H75.1289V88.372ZM77.6729 93.22C72.1529 93.22 68.3129 94.276 68.3129 97.228C68.3129 100.18 72.1529 101.236 77.6729 101.236C83.1929 101.236 87.0329 100.18 87.0329 97.228C87.0329 94.276 83.1929 93.22 77.6729 93.22ZM77.6729 98.212C74.6969 98.212 72.6329 97.972 72.6329 97.228C72.6329 96.508 74.6969 96.244 77.6729 96.244C80.6489 96.244 82.7129 96.508 82.7129 97.228C82.7129 97.972 80.6489 98.212 77.6729 98.212ZM109.639 84.028V80.5H105.583V92.068H109.639V87.964H112.039V84.028H109.639ZM103.351 80.74H99.4148V82.78H94.7828V80.74H90.8468V91.3H103.351V80.74ZM94.7828 88.036V85.948H99.4148V88.036H94.7828ZM100.591 92.404C95.4308 92.404 91.3508 93.532 91.3508 96.82C91.3508 100.108 95.4308 101.236 100.591 101.236C105.751 101.236 109.831 100.108 109.831 96.82C109.831 93.532 105.751 92.404 100.591 92.404ZM100.591 98.044C97.8788 98.044 95.7188 97.732 95.7188 96.82C95.7188 95.932 97.8788 95.596 100.591 95.596C103.303 95.596 105.463 95.932 105.463 96.82C105.463 97.732 103.303 98.044 100.591 98.044ZM129.341 80.5V83.932H126.557V80.74H122.621V82.756H117.989V80.74H114.053V91.06H126.557V87.724H129.341V91.444H133.397V80.5H129.341ZM117.989 87.892V85.828H122.621V87.892H117.989ZM129.413 93.412H119.045V92.164H115.061V100.996H133.397V92.164H129.413V93.412ZM119.045 97.852V96.484H129.413V97.852H119.045ZM155.577 79.66H151.377L142.593 102.1H146.793L155.577 79.66ZM185.609 87.988H183.209V80.5H179.153V100.996H183.209V91.924H185.609V87.988ZM164.537 84.676H172.001V86.524C172.001 92.524 169.457 96.148 164.537 96.196V100.036C171.641 100.036 176.129 94.852 176.129 86.524V80.98H164.537V84.676ZM202.959 80.5V82.348H200.583V85.876H202.959V87.532H199.791V91.06H202.959V92.692H206.967V80.5H202.959ZM199.623 83.716V80.74H187.527V84.196H195.495V84.508C195.495 87.244 192.327 88.756 187.527 88.804V92.332C194.511 92.332 199.623 89.716 199.623 83.716ZM188.535 96.892H202.839V101.236H206.967V93.412H188.535V96.892Z" fill="#020F32"/>
<rect x="20" y="132" width="212" height="32" rx="4" fill="white"/>
<path opacity="0.6" d="M93.3638 145.207V144.441H95.8657V143.02H88.9751V144.441H91.6138V145.207C91.6001 147.265 90.5542 149.575 88.4829 150.539L89.4946 151.92C90.9302 151.243 91.9556 149.849 92.5093 148.208C93.0698 149.698 94.0542 150.97 95.4419 151.605L96.4126 150.238C94.3687 149.288 93.3569 147.101 93.3638 145.207ZM96.8364 154.258H98.5864V148.023H100.418V146.561H98.5864V141.816H96.8364V154.258ZM104.862 144.947V142.883H103.167V145.029C103.167 147.135 102.483 149.329 100.637 150.471L101.704 151.756C102.832 151.072 103.577 149.89 104.021 148.481C104.417 149.753 105.094 150.833 106.174 151.482L107.118 150.129C105.416 149.042 104.855 146.964 104.862 144.947ZM105.805 147.436H107.418V153.684H109.045V141.994H107.418V146.014H105.805V147.436ZM109.989 154.258H111.657V141.816H109.989V154.258ZM123.387 141.816H121.624V154.258H123.387V141.816ZM113.229 145.084H120.667V143.689H117.836V141.98H116.059V143.689H113.229V145.084ZM113.762 148.734C113.762 150.471 115.129 151.694 116.975 151.701C118.814 151.694 120.174 150.471 120.174 148.734C120.174 146.998 118.814 145.761 116.975 145.768C115.129 145.761 113.762 146.998 113.762 148.734ZM115.43 148.734C115.423 147.777 116.066 147.189 116.975 147.176C117.871 147.189 118.506 147.777 118.506 148.734C118.506 149.698 117.871 150.272 116.975 150.266C116.066 150.272 115.423 149.698 115.43 148.734ZM136.458 151.387H131.604V149.09H135.186V142.609H133.45V144.537H128.022V142.609H126.272V149.09H129.868V151.387H125.069V152.809H136.458V151.387ZM128.022 147.695V145.932H133.45V147.695H128.022ZM147.627 141.816H145.864V154.258H147.627V141.816ZM137.209 150.73L138.125 152.125C142.569 150.026 143.888 146.889 143.895 143.115H137.879V144.482H142.118C141.837 147.244 140.422 149.213 137.209 150.73Z" fill="#020F32"/>
<path d="M158.2 153.65L157.15 152.6L161.75 148L157.15 143.4L158.2 142.35L163.85 148L158.2 153.65Z" fill="#BFC6CC"/>
</svg>
