<svg width="252" height="180" viewBox="0 0 252 180" fill="none" xmlns="http://www.w3.org/2000/svg">
<rect width="252" height="180" rx="12" fill="#FFD600"/>
<path opacity="0.6" d="M66.036 57.662H67.506V46.448H63.712V47.736H66.036V57.662ZM79.9541 54.876H81.3401V46H79.9541V54.876ZM74.0881 53.07C76.4261 53.07 77.8681 51.6 77.8681 49.598C77.8681 47.596 76.4261 46.126 74.0881 46.126C71.7501 46.126 70.2941 47.596 70.2941 49.598C70.2941 51.6 71.7501 53.07 74.0881 53.07ZM74.0881 51.894C72.6601 51.894 71.6801 51.012 71.6801 49.598C71.6801 48.184 72.6601 47.288 74.0881 47.288C75.5021 47.288 76.4821 48.184 76.4821 49.598C76.4821 51.012 75.5021 51.894 74.0881 51.894ZM71.3441 57.802H81.6621V56.542H72.7581V53.896H71.3441V57.802ZM98.6747 46.35H88.3987V52.146H98.6747V46.35ZM97.2887 50.872H89.7847V47.638H97.2887V50.872ZM99.5147 53.588H87.5727V54.904H92.8227V58.236H94.2507V54.904H99.5147V53.588ZM110.924 46V47.274H108.81L108.894 48.506H110.924V50.382H108.894L108.81 51.614H110.924V53.14H112.296V46H110.924ZM108.488 49.444C108.488 47.54 107.074 46.126 104.82 46.126C102.552 46.126 101.138 47.54 101.138 49.444C101.138 51.348 102.552 52.762 104.82 52.762C107.074 52.762 108.488 51.348 108.488 49.444ZM102.524 49.444C102.524 48.114 103.448 47.288 104.82 47.288C106.178 47.288 107.102 48.114 107.102 49.444C107.102 50.774 106.15 51.6 104.82 51.6C103.448 51.6 102.524 50.774 102.524 49.444ZM102.16 55.002H110.882V57.956H112.296V53.798H102.16V55.002ZM125.976 48.828V50.046H128.3V54.89H129.686V46H128.3V48.828H125.976ZM122.644 50.522L126.018 53.084L126.802 52.076L123.134 49.346C123.302 48.772 123.414 48.156 123.442 47.512H126.452V46.308H118.822V47.512H122.042C121.916 49.906 120.67 51.628 118.668 51.908V53.182C120.432 53 121.832 52.02 122.644 50.522ZM120.922 56.556V53.994H119.508V57.802H129.938V56.556H120.922ZM142.971 46.14H132.751V50.928H142.971V46.14ZM141.585 49.78H134.137V47.288H141.585V49.78ZM131.897 52.132V53.308H137.161V55.366H138.561V53.308H143.839V52.132H131.897ZM134.137 54.33H132.737V57.816H143.237V56.626H134.137V54.33ZM159.06 46V57.956H160.446V46H159.06ZM154.636 46.35L153.222 46.294C153.208 51.32 151.892 55.464 149.498 55.842V57.242C151.388 57.102 152.844 55.506 153.726 52.874L156.904 57.214L158.024 56.416L154.16 51.264C154.468 49.836 154.622 48.184 154.636 46.35ZM168.564 50.018L173.674 53.56L174.43 52.454L169.166 48.912C169.558 48.114 169.838 47.232 170.006 46.308L168.578 46.056C167.962 49.402 165.582 52.202 162.992 52.202V53.518C165.19 53.518 167.22 52.132 168.564 50.018ZM162.754 56.08V57.382H174.696V56.08H162.754ZM186.399 46V53.112H187.715V46H186.399ZM183.515 52.986H184.817V46.07H183.515V48.478H182.059V49.71H183.515V52.986ZM182.437 52.216V51.124C181.639 51.432 180.491 51.572 179.161 51.572H177.901V49.99H181.401V48.926H177.901V47.386H181.737V46.294H176.585V52.664H179.049C180.421 52.664 181.653 52.524 182.437 52.216ZM177.271 57.802H187.715V53.77H177.271V57.802ZM178.629 54.876H186.357V56.696H178.629V54.876Z" fill="#020F32"/>
<path d="M62.8359 66.5H58.7799V86.996H62.8359V66.5ZM56.0679 66.98H43.9239V86.036H56.0679V66.98ZM47.9799 82.244V70.772H52.0119V82.244H47.9799ZM81.9619 66.5V73.124H77.6419V76.916H81.9619V86.996H86.0179V66.5H81.9619ZM75.4339 67.052L71.3059 66.908C71.3059 75.476 69.2419 81.452 66.0979 81.812V86.036C69.2179 86.012 71.8099 83.684 73.4659 79.532L77.3299 86.012L80.8099 83.852L74.8579 74.444C75.2419 72.236 75.4339 69.764 75.4339 67.052ZM105.168 66.5V82.7L101.88 75.716C102.168 73.244 102.288 70.364 102.312 67.052L98.5438 66.908C98.5438 73.292 98.1598 78.164 97.0558 80.54L95.2558 75.716C95.5438 73.244 95.6638 70.34 95.6878 67.052L91.9198 66.908C91.9198 75.5 91.2238 81.356 88.9198 81.884V86.036C91.3198 85.748 92.9278 84.188 93.9838 81.404L95.5438 85.964V86.036H95.5678C98.0638 85.724 99.6958 84.044 100.752 81.044L102.84 85.868L105.168 84.668V86.996H109.128V66.5H105.168ZM138.796 76.028H135.676V70.724H138.58V66.98H120.148V70.724H123.052V76.028H119.932V79.748H138.796V76.028ZM127.132 70.724H131.596V76.028H127.132V70.724ZM118.996 82.484V86.276H139.732V82.484H118.996ZM154.514 82.58V80.276H161.93V76.724H147.242V75.308H161.69V66.98H143.186V70.532H157.682V71.924H143.234V80.276H150.386V82.58H142.082V86.276H162.818V82.58H154.514ZM184.776 66.98H166.248V70.772H180.48V81.164H184.776V66.98ZM185.904 82.46H165.168V86.276H185.904V82.46ZM204.862 66.5V70.244H203.158V66.596H199.414V78.428H203.158V73.892H204.862V78.644H208.654V66.5H204.862ZM198.454 77.564V74.54C197.374 74.972 195.574 75.212 193.726 75.212H192.334V73.94H197.734V66.74H188.614V69.812H194.038V71.084H188.614V78.284H193.51C195.43 78.284 197.374 78.02 198.454 77.564ZM189.79 86.996H208.654V79.364H189.79V86.996ZM193.774 82.484H204.67V83.876H193.774V82.484Z" fill="#020F32"/>
<rect x="20" y="132" width="212" height="32" rx="4" fill="white"/>
<path opacity="0.6" d="M79.7603 144.633V142.773H77.9966V144.633C77.9829 146.971 77.0122 149.37 74.8794 150.334L75.9731 151.756C77.395 151.059 78.3521 149.719 78.8853 148.085C79.4048 149.623 80.3345 150.867 81.7153 151.537L82.7817 150.143C80.7104 149.247 79.7671 146.971 79.7603 144.633ZM81.3872 147.135H83.8345V154.285H85.5571V141.816H83.8345V145.727H81.3872V147.135ZM97.5747 141.816H95.811V154.285H97.5747V141.816ZM87.772 151.373H93.9243V142.801H92.2017V145.836H89.522V142.801H87.772V151.373ZM89.522 149.965V147.189H92.2017V149.965H89.522ZM105.805 143.457V142.555H103.946V143.457C103.932 145.262 102.312 147.217 99.5435 147.709L100.295 149.158C102.449 148.721 104.062 147.49 104.882 145.911C105.689 147.504 107.295 148.728 109.469 149.158L110.235 147.709C107.418 147.23 105.798 145.282 105.805 143.457ZM99.2563 152.727H110.645V151.291H99.2563V152.727ZM124.399 141.816H122.649V154.258H124.399V147.928H126.231V146.465H124.399V141.816ZM114.979 151.373H121.036V142.801H119.299V145.836H116.715V142.801H114.979V151.373ZM116.715 149.965V147.189H119.299V149.965H116.715ZM138.071 151.441H133.217V149.568H137.045V148.146H129.745V146.752H136.758V142.623H127.981V144.018H135.036V145.385H127.995V149.568H131.481V151.441H126.682V152.877H138.071V151.441ZM148.598 141.816H146.848V154.23H148.598V148.023H150.362V146.588H148.598V141.816ZM138.645 150.744L139.629 152.084C143.813 150.026 145.262 146.807 145.276 143.088H139.356V144.51H143.505C143.177 147.285 141.591 149.268 138.645 150.744ZM161.34 141.816H159.577V154.258H161.34V141.816ZM150.922 150.73L151.838 152.125C156.282 150.026 157.601 146.889 157.608 143.115H151.592V144.482H155.831C155.55 147.244 154.135 149.213 150.922 150.73Z" fill="#020F32"/>
<path d="M171.7 153.65L170.65 152.6L175.25 148L170.65 143.4L171.7 142.35L177.35 148L171.7 153.65Z" fill="#BFC6CC"/>
</svg>
