<svg width="198" height="150" viewBox="0 0 198 150" fill="none" xmlns="http://www.w3.org/2000/svg">
<rect x="0.799805" width="196.8" height="150" rx="12" fill="#F5F8FB"/>
<path d="M49.4026 67.864H47.0026V64H42.9466V76.528H47.0026V71.8H49.4026V67.864ZM40.7146 64.24H36.7546V66.712H32.1706V64.24H28.2106V75.76H40.7146V64.24ZM32.1706 72.472V69.928H36.7546V72.472H32.1706ZM28.8106 80.68H42.8746V84.736H47.0026V77.248H28.8106V80.68ZM70.0166 72.064L70.9286 69.04L63.2486 67.456C63.3206 67.336 63.3686 67.216 63.4166 67.096H70.4006V64H52.0166V67.096H58.9286C57.6326 68.176 54.6086 68.776 51.7766 68.824V71.968C55.1366 71.92 58.3526 71.2 60.6086 69.952L70.0166 72.064ZM63.2246 72.832V71.08H59.1926V72.832H50.8406V75.952H71.5766V72.832H63.2246ZM61.2086 76.672C55.6646 76.672 51.8006 77.776 51.8006 80.728C51.8006 83.68 55.6646 84.784 61.2086 84.784C66.7526 84.784 70.6166 83.68 70.6166 80.728C70.6166 77.776 66.7526 76.672 61.2086 76.672ZM61.2086 81.76C58.2086 81.76 56.1206 81.472 56.1206 80.728C56.1206 80.008 58.2086 79.696 61.2086 79.696C64.2086 79.696 66.2966 80.008 66.2966 80.728C66.2966 81.472 64.2086 81.76 61.2086 81.76ZM93.7505 64H89.6945V79.168H93.7505V64ZM80.5985 64.024C76.5905 64.024 73.8545 66.472 73.8545 70.168C73.8545 73.888 76.5905 76.312 80.5985 76.312C84.6065 76.312 87.3425 73.888 87.3425 70.168C87.3425 66.472 84.6065 64.024 80.5985 64.024ZM80.5985 67.408C82.1585 67.408 83.3105 68.392 83.3105 70.168C83.3105 71.944 82.1585 72.928 80.5985 72.928C79.0385 72.928 77.8865 71.944 77.8865 70.168C77.8865 68.392 79.0385 67.408 80.5985 67.408ZM79.7825 77.32H75.6545V84.496H94.0385V80.848H79.7825V77.32ZM119.675 79.168H123.659V64H119.675V65.536H117.491V69.112H119.675V70.792H117.491V74.368H119.675V79.168ZM116.531 64.24H112.595V66.832H108.251V64.24H104.315V76.216H116.531V64.24ZM108.251 72.832V70.144H112.595V72.832H108.251ZM109.451 80.848V77.416H105.323V84.496H123.947V80.848H109.451ZM146.889 65.704H139.281V63.736H135.105V65.704H127.497V69.256H146.889V65.704ZM139.257 80.176V78.376C143.361 78.088 146.193 76.816 146.193 74.2C146.193 71.152 142.377 69.952 137.193 69.952C132.009 69.952 128.193 71.152 128.193 74.2C128.193 76.816 131.025 78.088 135.129 78.376V80.176H126.825V83.776H147.561V80.176H139.257ZM132.345 74.2C132.345 73.48 134.385 73.216 137.193 73.216C140.001 73.216 142.041 73.48 142.041 74.2C142.041 74.92 140.001 75.184 137.193 75.184C134.385 75.184 132.345 74.92 132.345 74.2ZM171.559 71.488H169.159V64H165.103V84.496H169.159V75.424H171.559V71.488ZM159.535 64.552L155.407 64.408C155.383 72.976 153.199 78.976 149.911 79.36V83.536C153.031 83.512 155.599 81.376 157.279 77.536L161.359 83.512L164.671 81.184L158.743 72.832C159.247 70.432 159.535 67.648 159.535 64.552Z" fill="#34495D"/>
</svg>
