<svg width="198" height="150" viewBox="0 0 198 150" fill="none" xmlns="http://www.w3.org/2000/svg">
<rect x="0.399902" width="196.8" height="150" rx="12" fill="#F5F8FB"/>
<path d="M75.4519 43.488H73.0519V36H68.9959V56.496H73.0519V47.424H75.4519V43.488ZM62.4439 42.504H58.4839V36.48H54.4999V55.536H66.4279V36.48H62.4439V42.504ZM58.4839 51.816V46.2H62.4439V51.816H58.4839ZM96.3779 36H78.1139V38.76H92.3939V39.792H78.1619V46.056H96.5939V43.296H82.1459V42.288H96.3779V36ZM97.6259 47.04H76.8899V50.208H97.6259V47.04ZM82.2179 51.168H78.0899V56.496H96.6659V53.28H82.2179V51.168ZM115.744 36V48.192H119.8V36H115.744ZM107.44 44.448L112.648 47.736L114.736 44.784L109.12 41.328C109.288 40.776 109.408 40.224 109.456 39.648H113.968V36.24H100.72V39.648H105.352C104.992 41.928 103.216 44.064 100.432 44.256V47.904C103.36 47.832 105.832 46.416 107.44 44.448ZM101.368 52.392H115.672V56.736H119.8V48.912H101.368V52.392ZM138.398 45.936H142.598V36.24H124.214V40.008H138.398V45.936ZM143.798 47.16H123.062V50.928H131.198V56.976H135.398V50.928H143.798V47.16Z" fill="#34495D"/>
<path opacity="0.6" d="M47.0967 81.8906V79.5H45.5967V81.8906C45.5889 84.4844 44.1436 87.1797 41.9717 88.2188L42.9092 89.4219C44.5264 88.5859 45.7451 86.8828 46.3623 84.8672C46.9795 86.7812 48.1826 88.3594 49.7686 89.1562L50.6748 87.9688C48.5342 87.0078 47.0967 84.4531 47.0967 81.8906ZM49.1279 84.1875H52.2529V92.3594H53.7217V78.3281H52.2529V82.9844H49.1279V84.1875ZM63.6748 79.8281H56.5186V81.0312H62.2061C62.1982 82.1953 62.1592 83.8281 61.7998 86.0625L63.2686 86.1719C63.667 83.6719 63.667 81.8672 63.6748 80.6875V79.8281ZM55.7373 88.1094L55.9092 89.3125C58.3936 89.3281 61.6514 89.2656 64.5654 88.7969L64.4873 87.6875C63.0889 87.8672 61.5654 87.9609 60.0811 88.0234V83.8281H58.6123V88.0703C57.5889 88.0938 56.6123 88.1016 55.7373 88.1094ZM65.2842 92.3281H66.7842V85.375H68.9248V84.1094H66.7842V78.3281H65.2842V92.3281ZM74.5967 80.9062V80.5312H77.6123V79.3281H70.0342V80.5312H73.1123V80.9219C73.1045 82.8672 71.7842 84.6719 69.5967 85.3906L70.3623 86.5781C72.042 85.9922 73.2686 84.7812 73.8779 83.25C74.4951 84.5781 75.6592 85.6328 77.2529 86.1406L77.9561 84.9844C75.8311 84.3125 74.5889 82.6875 74.5967 80.9062ZM71.4873 89.6719C71.4873 91.3359 73.2764 92.3047 76.1904 92.2969C79.0732 92.3047 80.8311 91.3359 80.8311 89.6719C80.8311 88.0312 79.0732 87.0703 76.1904 87.0781C73.2764 87.0703 71.4873 88.0312 71.4873 89.6719ZM72.9717 89.6719C72.9639 88.7578 74.167 88.2422 76.1904 88.25C78.1982 88.2422 79.3857 88.7578 79.3779 89.6719C79.3857 90.6094 78.1982 91.1328 76.1904 91.125C74.167 91.1328 72.9639 90.6094 72.9717 89.6719ZM79.2217 86.7344H80.7061V83.0156H82.7373V81.7969H80.7061V78.3281H79.2217V86.7344ZM95.1279 78.3281H93.6436V92.3594H95.1279V78.3281ZM84.0186 84.2812C84.0186 87.3047 85.5264 89.2109 87.6436 89.2031C89.7217 89.2109 91.2529 87.3047 91.2529 84.2812C91.2529 81.2891 89.7217 79.3828 87.6436 79.375C85.5264 79.3828 84.0186 81.2891 84.0186 84.2812ZM85.4561 84.2812C85.4482 82.0859 86.3389 80.7109 87.6436 80.7031C88.9248 80.7109 89.8154 82.0859 89.8154 84.2812C89.8154 86.5078 88.9248 87.875 87.6436 87.875C86.3389 87.875 85.4482 86.5078 85.4561 84.2812ZM114.034 86.7656H101.269V87.9844H106.909V92.3438H108.378V87.9844H114.034V86.7656ZM102.019 84.6094L102.565 85.7969C104.823 85.4844 106.745 84.4453 107.651 83C108.558 84.4297 110.472 85.4844 112.722 85.7969L113.253 84.6094C110.589 84.2734 108.472 82.7734 108.394 81.2188H112.815V80.0156H108.378V78.3281H106.909V80.0156H102.472V81.2188H106.909C106.815 82.7891 104.675 84.2734 102.019 84.6094ZM120.003 81.6562V81.3281H123.05V80.125H120.019V78.4219H118.534V80.125H115.487V81.3281H118.534V81.6562C118.534 83.5391 117.237 85.2656 115.097 85.9531L115.815 87.1094C117.472 86.5625 118.683 85.4141 119.292 83.9531C119.933 85.3203 121.144 86.3828 122.753 86.8906L123.472 85.7188C121.323 85.0469 120.003 83.4219 120.003 81.6562ZM117.675 92.0312H127.144V90.8281H119.159V87.8438H117.675V92.0312ZM122.565 83.7812H125.284V88.7656H126.769V78.3438H125.284V82.5781H122.565V83.7812ZM139.831 78.3281H138.362V92.3281H139.831V85.2344H142.081V84H139.831V78.3281ZM128.847 81.7344H137.144V80.5156H133.784V78.5156H132.3V80.5156H128.847V81.7344ZM129.565 86.0156C129.565 87.9375 131.034 89.2734 133.05 89.2812C135.058 89.2734 136.526 87.9375 136.534 86.0156C136.526 84.1094 135.058 82.7656 133.05 82.7656C131.034 82.7656 129.565 84.1094 129.565 86.0156ZM130.987 86.0156C130.979 84.8203 131.854 83.9922 133.05 83.9844C134.237 83.9922 135.104 84.8203 135.112 86.0156C135.104 87.2344 134.237 88.0469 133.05 88.0312C131.854 88.0469 130.979 87.2344 130.987 86.0156ZM154.081 82.4219H145.909V78.8281H144.44V83.6094H154.081V82.4219ZM142.737 86.5625H155.55V85.375H142.737V86.5625ZM144.331 92H154.175V90.7812H145.815V87.8906H144.331V92ZM60.3389 103.203H50.7607V104.422H58.8701V104.438C58.8623 105.742 58.8623 107.203 58.4482 109.203H49.1982V110.422H54.792V116.344H56.292V110.422H61.9639V109.203H59.9482C60.3389 107.211 60.3389 105.766 60.3389 104.438V103.203ZM75.0732 102.328H73.6514V107.812H71.917V102.594H70.5107V115.641H71.917V109.031H73.6514V116.328H75.0732V102.328ZM63.4951 112.641H68.9326V103.906H63.4951V112.641ZM64.9014 111.453V105.078H67.542V111.453H64.9014ZM85.5732 103.156H84.0889L80.4482 116.703H81.9326L85.5732 103.156ZM92.0889 103.625H90.6826V112.875H96.1357V103.625H94.7607V106.969H92.0889V103.625ZM92.0889 111.672V108.141H94.7607V111.672H92.0889ZM97.6982 115.641H99.1045V109.031H100.839V116.328H102.261V102.328H100.839V107.812H99.1045V102.594H97.6982V115.641ZM111.151 107.234H109.683V109.188H104.042V110.391H116.808V109.188H111.151V107.234ZM104.776 106.828L105.323 108C107.558 107.641 109.519 106.562 110.409 105.016C111.3 106.562 113.261 107.641 115.479 108L116.058 106.828C113.354 106.484 111.159 104.93 111.167 103.141V102.547H109.667V103.141C109.659 104.906 107.456 106.484 104.776 106.828ZM105.558 113.875C105.558 115.438 107.37 116.305 110.417 116.297C113.44 116.305 115.237 115.438 115.245 113.875C115.237 112.305 113.44 111.422 110.417 111.422C107.37 111.422 105.558 112.305 105.558 113.875ZM107.058 113.875C107.05 113.023 108.253 112.57 110.417 112.562C112.55 112.57 113.761 113.023 113.761 113.875C113.761 114.711 112.55 115.172 110.417 115.172C108.253 115.172 107.05 114.711 107.058 113.875ZM133.792 102.328H132.37V107.875H130.558V102.609H129.198V115.609H130.558V109.094H132.37V116.328H133.792V102.328ZM122.245 112.969H123.183C125.222 112.953 126.675 112.898 128.354 112.547L128.245 111.328C126.745 111.617 125.448 111.695 123.729 111.703V105.219H127.495V104.016H122.245V112.969ZM147.542 102.328H146.136V106.031H144.511V102.594H143.12V110.672H144.511V107.25H146.136V111.156H147.542V102.328ZM135.526 105.094H142.604V103.922H139.823V102.438H138.354V103.922H135.526V105.094ZM136.073 108.156C136.073 109.609 137.323 110.562 139.073 110.562C140.862 110.562 142.104 109.609 142.104 108.156C142.104 106.703 140.862 105.75 139.073 105.75C137.323 105.75 136.073 106.703 136.073 108.156ZM137.401 108.156C137.401 107.359 138.081 106.836 139.073 106.844C140.081 106.836 140.769 107.359 140.761 108.156C140.769 108.953 140.081 109.477 139.073 109.484C138.081 109.477 137.401 108.953 137.401 108.156ZM138.12 113.844C138.104 115.414 139.886 116.305 142.854 116.297C145.831 116.305 147.612 115.414 147.62 113.844C147.612 112.258 145.831 111.359 142.854 111.359C139.886 111.359 138.104 112.258 138.12 113.844ZM139.589 113.844C139.573 112.961 140.776 112.492 142.854 112.5C144.94 112.492 146.128 112.961 146.136 113.844C146.128 114.688 144.94 115.172 142.854 115.156C140.776 115.172 139.573 114.688 139.589 113.844Z" fill="#34495D"/>
</svg>
