<svg width="252" height="180" viewBox="0 0 252 180" fill="none" xmlns="http://www.w3.org/2000/svg">
<rect width="252" height="180" rx="12" fill="#DFFAA5"/>
<path opacity="0.6" d="M81.481 34.844H79.801V30H78.415V41.956H79.801V36.174H81.481V34.844ZM69.413 31.708H74.509V33.346C74.509 37.35 72.661 39.884 69.413 39.898V41.214C73.473 41.214 75.923 38.078 75.923 33.318V30.434H69.413V31.708ZM92.3158 36.72H93.7018V30H92.3158V31.946H89.4318V33.178H92.3158V36.72ZM86.4498 33.892L89.8658 36.244L90.6358 35.264L86.9958 32.772C87.2898 31.988 87.4438 31.12 87.4438 30.196L86.0578 30.112C86.0298 32.66 84.7138 34.802 82.4738 35.222V36.482C84.2238 36.244 85.5958 35.278 86.4498 33.892ZM88.6338 37.112C85.7358 37.112 83.4678 37.784 83.4678 39.534C83.4678 41.284 85.7358 41.956 88.6338 41.956C91.5318 41.956 93.7998 41.284 93.7998 39.534C93.7998 37.784 91.5318 37.112 88.6338 37.112ZM88.6338 40.822C86.5758 40.822 84.9378 40.416 84.9378 39.534C84.9378 38.652 86.5758 38.246 88.6338 38.246C90.6918 38.246 92.3298 38.652 92.3298 39.534C92.3298 40.416 90.6918 40.822 88.6338 40.822ZM105.685 30V41.956H107.071V30H105.685ZM102.003 34.466H97.9706V30.35H96.5986V41.242H103.375V30.35H102.003V34.466ZM97.9706 39.968V35.74H102.003V39.968H97.9706ZM124.461 30H123.075V35.992H124.461V30ZM122.207 35.026V33.906C121.689 34.144 121.017 34.298 120.177 34.382V31.4H121.689V30.294H113.485V31.4H114.983V34.452H113.443V35.558H118.357C120.065 35.558 121.479 35.348 122.207 35.026ZM116.327 31.4H118.833V34.452H118.455H116.327V31.4ZM115.711 40.724V39.73H124.461V36.65H114.311V37.728H123.089V38.708H114.339V41.802H124.755V40.724H115.711ZM132.608 33.388L137.76 36.328L138.404 35.166L133.28 32.324C133.616 31.652 133.868 30.91 134.008 30.14L132.58 29.916C132.062 32.744 129.626 35.04 127.05 35.026V36.342C129.234 36.328 131.278 35.194 132.608 33.388ZM138.712 37.602H126.77V38.89H132.02V42.236H133.434V38.89H138.712V37.602ZM150.307 31.204H147.871V29.832H146.485V31.204H143.951V32.324H150.307V31.204ZM154.367 30V33.178H152.463V30.07H151.175V37.63H152.463V34.452H154.367V37.756H155.655V30H154.367ZM150.013 35.264C150.013 33.822 148.795 32.968 147.199 32.968C145.617 32.968 144.385 33.822 144.385 35.264C144.385 36.72 145.617 37.56 147.199 37.56C148.795 37.56 150.013 36.72 150.013 35.264ZM145.631 35.264C145.631 34.536 146.247 34.018 147.199 34.018C148.165 34.018 148.767 34.536 148.767 35.264C148.767 35.992 148.165 36.524 147.199 36.524C146.247 36.524 145.631 35.992 145.631 35.264ZM145.043 39.576H154.269V41.956H155.655V38.414H145.043V39.576ZM161.645 33.57H163.031V30.14H158.327V31.26H161.645V33.57ZM167.371 33.57H168.743V30.14H163.731V31.26H167.371V33.57ZM169.569 35.278V34.172H157.627V35.278H162.905V36.566H158.425V37.644H167.385V38.666H158.453V41.816H168.953V40.738H159.811V39.716H168.743V36.566H164.277V35.278H169.569ZM180.866 30V36.608H182.252V30H180.866ZM179.928 35.908V34.788C179.158 35.124 177.786 35.32 176.162 35.32H173.012V33.906H178.822V32.814H173.012V31.414H179.06V30.294H171.64V36.44H176.05C177.744 36.44 179.186 36.23 179.928 35.908ZM180.88 38.358H173.488V37.266H172.116V41.802H182.252V37.266H180.88V38.358ZM173.488 40.682V39.45H180.88V40.682H173.488Z" fill="#020F32"/>
<path d="M104.543 53.9V50.5H101.163V63.14H104.543V57.18H106.543V53.9H104.543ZM99.3034 50.7H88.8834V60.42H99.3034V50.7ZM95.9634 57.56H92.2234V53.56H95.9634V57.56ZM92.9034 61.6H89.4634V67.58H104.783V64.54H92.9034V61.6ZM113.822 57.28C116.902 57.28 119.062 56.12 119.062 53.8C119.062 51.48 116.902 50.32 113.822 50.32C110.742 50.32 108.582 51.48 108.582 53.8C108.582 56.12 110.742 57.28 113.822 57.28ZM116.602 60.94V63.28H121.002V63.76H124.382V50.5H121.002V60.94H116.602ZM113.822 52.8C115.022 52.8 115.802 53.12 115.802 53.8C115.802 54.48 115.022 54.8 113.822 54.8C112.622 54.8 111.842 54.48 111.842 53.8C111.842 53.12 112.622 52.8 113.822 52.8ZM112.482 64.76V63.04H115.182V60.46H115.542C117.242 60.46 118.962 60.3 120.022 59.84V57.24C118.962 57.7 117.182 57.86 115.602 57.86H107.742V60.46H111.822V62.16H109.102V67.58H124.622V64.76H112.482ZM135.62 50.64C130.82 50.64 127.68 52.92 127.68 56.28C127.68 59.64 130.82 61.92 135.62 61.92C140.42 61.92 143.56 59.64 143.56 56.28C143.56 52.92 140.42 50.64 135.62 50.64ZM135.62 53.7C138.2 53.7 139.98 54.74 139.98 56.28C139.98 57.82 138.2 58.86 135.62 58.86C133.04 58.86 131.26 57.82 131.26 56.28C131.26 54.74 133.04 53.7 135.62 53.7ZM144.26 63.82H126.98V66.98H144.26V63.82ZM156.578 63.9V61.98H162.758V59.02H150.518V57.84H162.558V50.9H147.138V53.86H159.218V55.02H147.178V61.98H153.138V63.9H146.218V66.98H163.498V63.9H156.578ZM55.7441 81L62.7441 85.48L64.5241 82.74L57.2441 78.36C57.7041 77.3 58.0241 76.18 58.1841 74.98L54.7441 74.44C54.1241 79.02 50.9641 82.18 47.5641 82.2V85.4C50.8241 85.38 53.7641 83.68 55.7441 81ZM47.2241 90.98H64.5041V87.82H47.2241V90.98ZM84.5024 80.74H82.5024V74.5H79.1224V91.58H82.5024V84.02H84.5024V80.74ZM67.0424 90.78H76.9824V74.9H67.0424V90.78ZM70.4224 78.04H73.6024V87.64H70.4224V78.04ZM102.241 83.34H90.0007V82H101.761V79.2H90.0007V77.86H102.041V74.9H86.6607V86.3H102.241V83.34ZM85.7007 87.88V90.98H102.981V87.88H85.7007ZM113.459 81L120.459 85.48L122.239 82.74L114.959 78.36C115.419 77.3 115.739 76.18 115.899 74.98L112.459 74.44C111.839 79.02 108.679 82.18 105.279 82.2V85.4C108.539 85.38 111.479 83.68 113.459 81ZM104.939 90.98H122.219V87.82H104.939V90.98ZM134.537 87.92V86.06H140.717V83.12H128.477V81.86H140.237V79.08H128.477V77.84H140.517V74.9H125.137V86.06H131.097V87.92H124.177V90.98H141.457V87.92H134.537ZM156.636 74.5V80.94H154.336C153.896 76.64 151.936 74.7 149.136 74.7C145.956 74.7 143.836 77.22 143.836 82.84C143.836 88.46 145.956 90.98 149.136 90.98C152.076 90.98 154.076 88.84 154.376 84.1H156.636V91.58H160.016V74.5H156.636ZM149.136 87.88C148.016 87.88 147.176 86.68 147.176 82.84C147.176 79.02 148.016 77.8 149.136 77.8C150.236 77.8 151.076 79.02 151.076 82.84C151.076 86.68 150.236 87.88 149.136 87.88ZM182.099 74.5V91.58H185.259V74.5H182.099ZM177.799 80.58H175.619V83.76H177.799V88.62L174.059 82.14C174.199 80.88 174.279 79.48 174.299 77.96H176.699V74.9H168.599V77.96H171.099C171.039 83.66 169.979 87.24 168.259 87.48V90.78C170.459 90.7 172.079 89.26 173.079 86.52L175.279 90.52L177.799 89.12V91.28H180.919V74.58H177.799V80.58ZM203.898 78.82H201.278V77.04H203.718V74.5H188.558V77.04H190.998V78.82H188.378V81.36H203.898V78.82ZM194.358 77.04H197.918V78.82H194.358V77.04ZM204.778 84.7V82.14H187.498V84.7H194.458V85.6H188.498V91.58H203.778V85.6H197.818V84.7H204.778ZM200.438 89.1H191.838V88.08H200.438V89.1ZM63.4641 98.5H60.1641V99.44H51.5641V98.5H48.2641V104.78H63.4641V98.5ZM51.5641 102.48V101.62H60.1641V102.48H51.5641ZM47.2241 105.44V107.88H64.5041V105.44H47.2241ZM51.5441 112.92H63.5041V108.54H48.2041V110.6H60.2041V111.18H48.2441V115.58H63.6841V113.5H51.5441V112.92ZM76.8224 111.9V109.98H83.0024V107.02H70.7624V105.84H82.8024V98.9H67.3824V101.86H79.4624V103.02H67.4224V109.98H73.3824V111.9H66.4624V114.98H83.7424V111.9H76.8224ZM102.041 98.9H86.6007V102.06H98.4607V110.72H102.041V98.9ZM102.981 111.8H85.7007V114.98H102.981V111.8ZM118.779 98.5V115.58H121.939V98.5H118.779ZM114.479 105H113.239C112.959 100.52 111.519 98.7 109.119 98.7C106.419 98.7 104.939 101.02 104.939 106.84C104.939 112.68 106.419 114.98 109.119 114.98C111.599 114.98 113.039 113.06 113.259 108.24H114.479V115.28H117.599V98.58H114.479V105ZM109.119 111.92C108.359 111.92 108.079 110.38 108.079 106.84C108.079 103.3 108.359 101.76 109.119 101.76C109.879 101.76 110.159 103.3 110.159 106.84C110.159 110.38 109.879 111.92 109.119 111.92ZM140.143 111.82V108.72H146.223V105.56H134.183V98.8H130.723V108.72H136.703V111.82H129.783V114.98H147.063V111.82H140.143ZM165.121 105.22L165.761 102.88L159.421 101.68C159.481 101.58 159.521 101.48 159.561 101.36H165.421V99.02H159.381V97.82H155.941V99.02H149.901V101.36H155.801C154.741 102.2 152.081 102.68 149.601 102.74V105.14C152.461 105.1 155.261 104.56 157.181 103.6L165.121 105.22ZM166.301 107.94V105.6H149.021V107.94H155.941V108.66H150.001V110.66H162.001V111.24H150.041V115.58H165.481V113.56H153.341V112.98H165.301V108.66H159.381V107.94H166.301ZM175.899 98.44H172.439V100.56H168.619V103.64H179.699V100.56H175.899V98.44ZM186.299 104.74H184.299V98.5H180.919V115.58H184.299V108.02H186.299V104.74ZM174.159 104.34C171.079 104.34 169.199 106.64 169.199 109.66C169.199 112.7 171.079 114.98 174.159 114.98C177.239 114.98 179.119 112.7 179.119 109.66C179.119 106.64 177.239 104.34 174.159 104.34ZM174.159 112.08C173.059 112.08 172.419 111.12 172.419 109.66C172.419 108.2 173.059 107.24 174.159 107.24C175.259 107.24 175.899 108.2 175.899 109.66C175.899 111.12 175.259 112.08 174.159 112.08ZM204.018 98.5H200.638V115.58H204.018V98.5ZM197.998 98.9H188.158V101.98H194.538V103.52C194.538 108.46 192.298 111.54 188.158 111.58V114.78C194.138 114.78 197.998 110.46 197.998 103.52V98.9Z" fill="#020F32"/>
<rect x="20" y="132" width="212" height="32" rx="4" fill="white"/>
<path opacity="0.6" d="M93.3638 145.207V144.441H95.8657V143.02H88.9751V144.441H91.6138V145.207C91.6001 147.265 90.5542 149.575 88.4829 150.539L89.4946 151.92C90.9302 151.243 91.9556 149.849 92.5093 148.208C93.0698 149.698 94.0542 150.97 95.4419 151.605L96.4126 150.238C94.3687 149.288 93.3569 147.101 93.3638 145.207ZM96.8364 154.258H98.5864V148.023H100.418V146.561H98.5864V141.816H96.8364V154.258ZM104.862 144.947V142.883H103.167V145.029C103.167 147.135 102.483 149.329 100.637 150.471L101.704 151.756C102.832 151.072 103.577 149.89 104.021 148.481C104.417 149.753 105.094 150.833 106.174 151.482L107.118 150.129C105.416 149.042 104.855 146.964 104.862 144.947ZM105.805 147.436H107.418V153.684H109.045V141.994H107.418V146.014H105.805V147.436ZM109.989 154.258H111.657V141.816H109.989V154.258ZM123.387 141.816H121.624V154.258H123.387V141.816ZM113.229 145.084H120.667V143.689H117.836V141.98H116.059V143.689H113.229V145.084ZM113.762 148.734C113.762 150.471 115.129 151.694 116.975 151.701C118.814 151.694 120.174 150.471 120.174 148.734C120.174 146.998 118.814 145.761 116.975 145.768C115.129 145.761 113.762 146.998 113.762 148.734ZM115.43 148.734C115.423 147.777 116.066 147.189 116.975 147.176C117.871 147.189 118.506 147.777 118.506 148.734C118.506 149.698 117.871 150.272 116.975 150.266C116.066 150.272 115.423 149.698 115.43 148.734ZM136.458 151.387H131.604V149.09H135.186V142.609H133.45V144.537H128.022V142.609H126.272V149.09H129.868V151.387H125.069V152.809H136.458V151.387ZM128.022 147.695V145.932H133.45V147.695H128.022ZM147.627 141.816H145.864V154.258H147.627V141.816ZM137.209 150.73L138.125 152.125C142.569 150.026 143.888 146.889 143.895 143.115H137.879V144.482H142.118C141.837 147.244 140.422 149.213 137.209 150.73Z" fill="#020F32"/>
<path d="M158.2 153.65L157.15 152.6L161.75 148L157.15 143.4L158.2 142.35L163.85 148L158.2 153.65Z" fill="#BFC6CC"/>
</svg>
